<svg width="170" height="201" viewBox="0 0 170 201" fill="none" xmlns="http://www.w3.org/2000/svg">
<path d="M43 86.9886V16H3C1.89543 16 1 16.8954 1 18V44C1 67.414 19.7137 86.4572 43 86.9886Z" fill="#C5D4ED" stroke="black" stroke-width="2"/>
<path d="M127 86.9886V16H167C168.105 16 169 16.8954 169 18V44C169 67.414 150.286 86.4572 127 86.9886Z" fill="#C5D4ED" stroke="black" stroke-width="2"/>
<path d="M102.625 156.975V161H62.125V157.015C62.125 152.421 63.5727 147.944 66.2623 144.22L67.2293 142.881C69.1766 140.185 70.5583 137.123 71.2914 133.879L71.5044 132.936C72.3432 129.224 72.1648 125.354 70.9879 121.736C70.4394 120.049 69.6809 118.438 68.7303 116.941L67.6147 115.184C65.8956 112.476 63.8372 109.999 61.4898 107.814L59.5416 106H106.617L101.661 111.05L101.624 111.087L101.592 111.128L97.4073 116.401C95.9661 118.217 94.868 120.28 94.1665 122.489C93.1339 125.742 92.9925 129.212 93.7571 132.538L94.1475 134.236C94.8377 137.239 96.0672 140.091 97.7762 142.655L98.7159 144.064C101.265 147.888 102.625 152.38 102.625 156.975Z" fill="#FFD13F" stroke="black" stroke-width="2"/>
<path d="M57 161H108C112.418 161 116 164.582 116 169V177H49L49 169C49 164.582 52.5817 161 57 161Z" fill="#FFD13F" stroke="black" stroke-width="2"/>
<mask id="path-5-inside-1_74_37" fill="white">
<path fill-rule="evenodd" clip-rule="evenodd" d="M45 0C36.7157 0 30 6.71573 30 15V55C30 55.3813 30.0142 55.7593 30.0422 56.1334C30.0141 56.9184 30 57.7073 30 58.5C30 90.8087 53.5051 117 82.5 117C111.495 117 135 90.8087 135 58.5C135 57.7073 134.986 56.9184 134.958 56.1334C134.986 55.7593 135 55.3813 135 55V15C135 6.71573 128.284 0 120 0H82.5H45Z"/>
</mask>
<path fill-rule="evenodd" clip-rule="evenodd" d="M45 0C36.7157 0 30 6.71573 30 15V55C30 55.3813 30.0142 55.7593 30.0422 56.1334C30.0141 56.9184 30 57.7073 30 58.5C30 90.8087 53.5051 117 82.5 117C111.495 117 135 90.8087 135 58.5C135 57.7073 134.986 56.9184 134.958 56.1334C134.986 55.7593 135 55.3813 135 55V15C135 6.71573 128.284 0 120 0H82.5H45Z" fill="#FFD13F"/>
<path d="M30.0422 56.1334L32.0409 56.2048L32.0448 56.0945L32.0366 55.9844L30.0422 56.1334ZM134.958 56.1334L132.963 55.9844L132.955 56.0945L132.959 56.2048L134.958 56.1334ZM32 15C32 7.8203 37.8203 2 45 2V-2C35.6112 -2 28 5.61116 28 15H32ZM32 55V15H28V55H32ZM32.0366 55.9844C32.0124 55.6598 32 55.3315 32 55H28C28 55.4311 28.0161 55.8587 28.0477 56.2824L32.0366 55.9844ZM32 58.5C32 57.7311 32.0137 56.966 32.0409 56.2048L28.0435 56.062C28.0146 56.8708 28 57.6835 28 58.5H32ZM82.5 115C54.8077 115 32 89.9131 32 58.5H28C28 91.7042 52.2024 119 82.5 119V115ZM133 58.5C133 89.9131 110.192 115 82.5 115V119C112.798 119 137 91.7042 137 58.5H133ZM132.959 56.2048C132.986 56.966 133 57.7311 133 58.5H137C137 57.6836 136.985 56.8708 136.957 56.062L132.959 56.2048ZM133 55C133 55.3315 132.988 55.6598 132.963 55.9844L136.952 56.2824C136.984 55.8587 137 55.431 137 55H133ZM133 15V55H137V15H133ZM120 2C127.18 2 133 7.8203 133 15H137C137 5.61116 129.389 -2 120 -2V2ZM82.5 2H120V-2H82.5V2ZM45 2H82.5V-2H45V2Z" fill="black" mask="url(#path-5-inside-1_74_37)"/>
<path d="M43 170H123C127.418 170 131 173.582 131 178V186H35L35 178C35 173.582 38.5817 170 43 170Z" fill="#FFD13F" stroke="black" stroke-width="2"/>
<path d="M31 184H135C139.418 184 143 187.582 143 192V200H23L23 192C23 187.582 26.5817 184 31 184Z" fill="white" stroke="black" stroke-width="2"/>
<path d="M121 2L122.033 2.17211C123.337 2.38948 124.601 2.80064 125.784 3.39196L125.834 3.4171C127.266 4.13284 128.552 5.10748 129.629 6.29171V6.29171C131.798 8.67785 133 11.7868 133 15.0116V55V61.5V61.5C132.667 65.8272 132.01 70.1234 131.034 74.3522L131 74.5L129 80.5L127 85.5L124.5 90L121.5 94.5L118.645 97.8742C116.885 99.9541 114.948 101.877 112.854 103.621L110 106L105.5 109L104.818 109.379C102.278 110.79 99.6127 111.962 96.856 112.881L96.5 113L92 114L107.547 97.7297C111.478 93.616 114.57 88.776 116.651 83.4801V83.4801C118.209 79.5146 119.18 75.343 119.534 71.0971L121 53.5V30.5V12.5V2Z" fill="#F0B700"/>
<path d="M41.1967 18C41.1967 57 39 74.5 50.0879 81.9688" stroke="white" stroke-width="5.5"/>
<rect x="38.45" y="14" width="5.5" height="8" rx="2.75" fill="white"/>
<rect x="45" y="81.62" width="5.5" height="9.50365" rx="2.75" transform="rotate(-53 45 81.62)" fill="white"/>
<path d="M41.4003 190.34C41.3536 190.267 41.3103 190.167 41.2703 190.04C41.2303 189.913 41.2103 189.78 41.2103 189.64C41.2103 189.38 41.2669 189.193 41.3803 189.08C41.5003 188.967 41.6536 188.91 41.8403 188.91H46.2003C46.2469 188.983 46.2903 189.083 46.3303 189.21C46.3703 189.337 46.3903 189.47 46.3903 189.61C46.3903 189.87 46.3303 190.057 46.2103 190.17C46.0969 190.283 45.9469 190.34 45.7603 190.34H44.6503V194.96C44.5769 194.98 44.4603 195 44.3003 195.02C44.1469 195.04 43.9936 195.05 43.8403 195.05C43.6869 195.05 43.5503 195.037 43.4303 195.01C43.3169 194.99 43.2203 194.95 43.1403 194.89C43.0603 194.83 43.0003 194.747 42.9603 194.64C42.9203 194.533 42.9003 194.393 42.9003 194.22V190.34H41.4003ZM51.5412 192.57C51.5412 192.983 51.4779 193.353 51.3512 193.68C51.2245 194 51.0445 194.27 50.8112 194.49C50.5845 194.71 50.3112 194.877 49.9912 194.99C49.6712 195.103 49.3145 195.16 48.9212 195.16C48.5279 195.16 48.1712 195.1 47.8512 194.98C47.5312 194.86 47.2545 194.69 47.0212 194.47C46.7945 194.243 46.6179 193.97 46.4912 193.65C46.3645 193.33 46.3012 192.97 46.3012 192.57C46.3012 192.177 46.3645 191.82 46.4912 191.5C46.6179 191.18 46.7945 190.91 47.0212 190.69C47.2545 190.463 47.5312 190.29 47.8512 190.17C48.1712 190.05 48.5279 189.99 48.9212 189.99C49.3145 189.99 49.6712 190.053 49.9912 190.18C50.3112 190.3 50.5845 190.473 50.8112 190.7C51.0445 190.92 51.2245 191.19 51.3512 191.51C51.4779 191.83 51.5412 192.183 51.5412 192.57ZM48.0412 192.57C48.0412 192.977 48.1179 193.29 48.2712 193.51C48.4312 193.723 48.6512 193.83 48.9312 193.83C49.2112 193.83 49.4245 193.72 49.5712 193.5C49.7245 193.28 49.8012 192.97 49.8012 192.57C49.8012 192.17 49.7245 191.863 49.5712 191.65C49.4179 191.43 49.2012 191.32 48.9212 191.32C48.6412 191.32 48.4245 191.43 48.2712 191.65C48.1179 191.863 48.0412 192.17 48.0412 192.57ZM54.6006 189.99C55.0006 189.99 55.3706 190.043 55.7106 190.15C56.0573 190.25 56.3539 190.407 56.6006 190.62C56.8473 190.833 57.0406 191.103 57.1806 191.43C57.3206 191.75 57.3906 192.133 57.3906 192.58C57.3906 193.007 57.3306 193.38 57.2106 193.7C57.0906 194.02 56.9206 194.29 56.7006 194.51C56.4806 194.723 56.2139 194.883 55.9006 194.99C55.5939 195.097 55.2506 195.15 54.8706 195.15C54.5839 195.15 54.3173 195.107 54.0706 195.02V196.68C54.0039 196.7 53.8973 196.72 53.7506 196.74C53.6039 196.767 53.4539 196.78 53.3006 196.78C53.1539 196.78 53.0206 196.77 52.9006 196.75C52.7873 196.73 52.6906 196.69 52.6106 196.63C52.5306 196.57 52.4706 196.487 52.4306 196.38C52.3906 196.28 52.3706 196.147 52.3706 195.98V191.18C52.3706 191 52.4073 190.853 52.4806 190.74C52.5606 190.627 52.6673 190.523 52.8006 190.43C53.0073 190.297 53.2639 190.19 53.5706 190.11C53.8773 190.03 54.2206 189.99 54.6006 189.99ZM54.6206 193.81C55.3073 193.81 55.6506 193.4 55.6506 192.58C55.6506 192.153 55.5639 191.837 55.3906 191.63C55.2239 191.423 54.9806 191.32 54.6606 191.32C54.5339 191.32 54.4206 191.337 54.3206 191.37C54.2206 191.397 54.1339 191.43 54.0606 191.47V193.67C54.1406 193.71 54.2273 193.743 54.3206 193.77C54.4139 193.797 54.5139 193.81 54.6206 193.81ZM63.0202 194.99C62.9535 195.01 62.8469 195.03 62.7002 195.05C62.5602 195.07 62.4135 195.08 62.2602 195.08C62.1135 195.08 61.9802 195.07 61.8602 195.05C61.7469 195.03 61.6502 194.99 61.5702 194.93C61.4902 194.87 61.4269 194.79 61.3802 194.69C61.3402 194.583 61.3202 194.447 61.3202 194.28V192.06C61.3202 191.787 61.2502 191.597 61.1102 191.49C60.9769 191.377 60.8102 191.32 60.6102 191.32C60.4769 191.32 60.3502 191.337 60.2302 191.37C60.1102 191.403 60.0135 191.443 59.9402 191.49V194.99C59.8735 195.01 59.7669 195.03 59.6202 195.05C59.4802 195.07 59.3335 195.08 59.1802 195.08C59.0335 195.08 58.9002 195.07 58.7802 195.05C58.6669 195.03 58.5702 194.99 58.4902 194.93C58.4102 194.87 58.3469 194.79 58.3002 194.69C58.2602 194.583 58.2402 194.447 58.2402 194.28V188.48C58.3135 188.467 58.4202 188.45 58.5602 188.43C58.7069 188.403 58.8535 188.39 59.0002 188.39C59.1469 188.39 59.2769 188.4 59.3902 188.42C59.5102 188.44 59.6102 188.48 59.6902 188.54C59.7702 188.6 59.8302 188.683 59.8702 188.79C59.9169 188.89 59.9402 189.023 59.9402 189.19V190.17C60.0269 190.137 60.1569 190.1 60.3302 190.06C60.5102 190.013 60.7069 189.99 60.9202 189.99C61.5802 189.99 62.0935 190.157 62.4602 190.49C62.8335 190.817 63.0202 191.307 63.0202 191.96V194.99ZM67.1318 195.03C66.8451 195.03 66.6184 194.947 66.4518 194.78C66.2851 194.613 66.2018 194.387 66.2018 194.1V188.93C66.2751 188.917 66.3918 188.9 66.5518 188.88C66.7118 188.853 66.8651 188.84 67.0118 188.84C67.1651 188.84 67.2984 188.853 67.4118 188.88C67.5318 188.9 67.6318 188.94 67.7118 189C67.7918 189.06 67.8518 189.143 67.8918 189.25C67.9318 189.357 67.9518 189.497 67.9518 189.67V193.62H70.2418C70.2884 193.693 70.3318 193.793 70.3718 193.92C70.4118 194.04 70.4318 194.167 70.4318 194.3C70.4318 194.567 70.3751 194.757 70.2618 194.87C70.1484 194.977 69.9984 195.03 69.8118 195.03H67.1318ZM73.6711 195.16C73.2777 195.16 72.9111 195.107 72.5711 195C72.2377 194.887 71.9444 194.72 71.6911 194.5C71.4444 194.28 71.2477 194.003 71.1011 193.67C70.9611 193.337 70.8911 192.947 70.8911 192.5C70.8911 192.06 70.9611 191.683 71.1011 191.37C71.2477 191.05 71.4377 190.79 71.6711 190.59C71.9044 190.383 72.1711 190.233 72.4711 190.14C72.7711 190.04 73.0777 189.99 73.3911 189.99C73.7444 189.99 74.0644 190.043 74.3511 190.15C74.6444 190.257 74.8944 190.403 75.1011 190.59C75.3144 190.777 75.4777 191 75.5911 191.26C75.7111 191.52 75.7711 191.803 75.7711 192.11C75.7711 192.337 75.7077 192.51 75.5811 192.63C75.4544 192.75 75.2777 192.827 75.0511 192.86L72.5811 193.23C72.6544 193.45 72.8044 193.617 73.0311 193.73C73.2577 193.837 73.5177 193.89 73.8111 193.89C74.0844 193.89 74.3411 193.857 74.5811 193.79C74.8277 193.717 75.0277 193.633 75.1811 193.54C75.2877 193.607 75.3777 193.7 75.4511 193.82C75.5244 193.94 75.5611 194.067 75.5611 194.2C75.5611 194.5 75.4211 194.723 75.1411 194.87C74.9277 194.983 74.6877 195.06 74.4211 195.1C74.1544 195.14 73.9044 195.16 73.6711 195.16ZM73.3911 191.23C73.2311 191.23 73.0911 191.257 72.9711 191.31C72.8577 191.363 72.7644 191.433 72.6911 191.52C72.6177 191.6 72.5611 191.693 72.5211 191.8C72.4877 191.9 72.4677 192.003 72.4611 192.11L74.1711 191.83C74.1511 191.697 74.0777 191.563 73.9511 191.43C73.8244 191.297 73.6377 191.23 73.3911 191.23ZM78.6693 193.92C78.7827 193.92 78.906 193.91 79.0393 193.89C79.1793 193.863 79.2827 193.83 79.3493 193.79V192.99L78.6293 193.05C78.4427 193.063 78.2893 193.103 78.1693 193.17C78.0493 193.237 77.9893 193.337 77.9893 193.47C77.9893 193.603 78.0393 193.713 78.1393 193.8C78.246 193.88 78.4227 193.92 78.6693 193.92ZM78.5893 189.99C78.9493 189.99 79.276 190.027 79.5693 190.1C79.8693 190.173 80.1227 190.287 80.3293 190.44C80.5427 190.587 80.706 190.777 80.8193 191.01C80.9327 191.237 80.9893 191.507 80.9893 191.82V194.06C80.9893 194.233 80.9393 194.377 80.8393 194.49C80.746 194.597 80.6327 194.69 80.4993 194.77C80.066 195.03 79.456 195.16 78.6693 195.16C78.316 195.16 77.996 195.127 77.7093 195.06C77.4293 194.993 77.186 194.893 76.9793 194.76C76.7793 194.627 76.6227 194.457 76.5093 194.25C76.4027 194.043 76.3493 193.803 76.3493 193.53C76.3493 193.07 76.486 192.717 76.7593 192.47C77.0327 192.223 77.456 192.07 78.0293 192.01L79.3393 191.87V191.8C79.3393 191.607 79.2527 191.47 79.0793 191.39C78.9127 191.303 78.6693 191.26 78.3493 191.26C78.096 191.26 77.8493 191.287 77.6093 191.34C77.3693 191.393 77.1527 191.46 76.9593 191.54C76.8727 191.48 76.7993 191.39 76.7393 191.27C76.6793 191.143 76.6493 191.013 76.6493 190.88C76.6493 190.707 76.6893 190.57 76.7693 190.47C76.856 190.363 76.986 190.273 77.1593 190.2C77.3527 190.127 77.5793 190.073 77.8393 190.04C78.106 190.007 78.356 189.99 78.5893 189.99ZM81.8188 192.57C81.8188 192.13 81.8855 191.75 82.0188 191.43C82.1521 191.103 82.3355 190.833 82.5688 190.62C82.8088 190.407 83.0855 190.25 83.3988 190.15C83.7188 190.043 84.0621 189.99 84.4288 189.99C84.5621 189.99 84.6921 190.003 84.8188 190.03C84.9455 190.05 85.0488 190.077 85.1288 190.11V188.49C85.1955 188.47 85.3021 188.45 85.4488 188.43C85.5955 188.403 85.7455 188.39 85.8988 188.39C86.0455 188.39 86.1755 188.4 86.2888 188.42C86.4088 188.44 86.5088 188.48 86.5888 188.54C86.6688 188.6 86.7288 188.683 86.7688 188.79C86.8088 188.89 86.8288 189.023 86.8288 189.19V193.93C86.8288 194.243 86.6821 194.493 86.3888 194.68C86.1955 194.807 85.9455 194.917 85.6388 195.01C85.3321 195.11 84.9788 195.16 84.5788 195.16C84.1455 195.16 83.7555 195.1 83.4088 194.98C83.0688 194.86 82.7788 194.687 82.5388 194.46C82.3055 194.233 82.1255 193.963 81.9988 193.65C81.8788 193.33 81.8188 192.97 81.8188 192.57ZM84.6588 191.32C84.2988 191.32 84.0221 191.423 83.8288 191.63C83.6355 191.837 83.5388 192.15 83.5388 192.57C83.5388 192.983 83.6288 193.297 83.8088 193.51C83.9888 193.717 84.2488 193.82 84.5888 193.82C84.7088 193.82 84.8155 193.803 84.9088 193.77C85.0088 193.73 85.0855 193.687 85.1388 193.64V191.44C85.0055 191.36 84.8455 191.32 84.6588 191.32ZM90.4582 195.16C90.0648 195.16 89.6982 195.107 89.3582 195C89.0248 194.887 88.7315 194.72 88.4782 194.5C88.2315 194.28 88.0348 194.003 87.8882 193.67C87.7482 193.337 87.6782 192.947 87.6782 192.5C87.6782 192.06 87.7482 191.683 87.8882 191.37C88.0348 191.05 88.2248 190.79 88.4582 190.59C88.6915 190.383 88.9582 190.233 89.2582 190.14C89.5582 190.04 89.8648 189.99 90.1782 189.99C90.5315 189.99 90.8515 190.043 91.1382 190.15C91.4315 190.257 91.6815 190.403 91.8882 190.59C92.1015 190.777 92.2648 191 92.3782 191.26C92.4982 191.52 92.5582 191.803 92.5582 192.11C92.5582 192.337 92.4948 192.51 92.3682 192.63C92.2415 192.75 92.0648 192.827 91.8382 192.86L89.3682 193.23C89.4415 193.45 89.5915 193.617 89.8182 193.73C90.0448 193.837 90.3048 193.89 90.5982 193.89C90.8715 193.89 91.1282 193.857 91.3682 193.79C91.6148 193.717 91.8148 193.633 91.9682 193.54C92.0748 193.607 92.1648 193.7 92.2382 193.82C92.3115 193.94 92.3482 194.067 92.3482 194.2C92.3482 194.5 92.2082 194.723 91.9282 194.87C91.7148 194.983 91.4748 195.06 91.2082 195.1C90.9415 195.14 90.6915 195.16 90.4582 195.16ZM90.1782 191.23C90.0182 191.23 89.8782 191.257 89.7582 191.31C89.6448 191.363 89.5515 191.433 89.4782 191.52C89.4048 191.6 89.3482 191.693 89.3082 191.8C89.2748 191.9 89.2548 192.003 89.2482 192.11L90.9582 191.83C90.9382 191.697 90.8648 191.563 90.7382 191.43C90.6115 191.297 90.4248 191.23 90.1782 191.23ZM95.0764 194.99C95.0098 195.01 94.9031 195.03 94.7564 195.05C94.6164 195.07 94.4698 195.08 94.3164 195.08C94.1698 195.08 94.0364 195.07 93.9164 195.05C93.8031 195.03 93.7064 194.99 93.6264 194.93C93.5464 194.87 93.4831 194.79 93.4364 194.69C93.3964 194.583 93.3764 194.447 93.3764 194.28V191.28C93.3764 191.127 93.4031 190.997 93.4564 190.89C93.5164 190.777 93.5998 190.677 93.7064 190.59C93.8131 190.503 93.9431 190.427 94.0964 190.36C94.2564 190.287 94.4264 190.223 94.6064 190.17C94.7864 190.117 94.9731 190.077 95.1664 190.05C95.3598 190.017 95.5531 190 95.7464 190C96.0664 190 96.3198 190.063 96.5064 190.19C96.6931 190.31 96.7864 190.51 96.7864 190.79C96.7864 190.883 96.7731 190.977 96.7464 191.07C96.7198 191.157 96.6864 191.237 96.6464 191.31C96.5064 191.31 96.3631 191.317 96.2164 191.33C96.0698 191.343 95.9264 191.363 95.7864 191.39C95.6464 191.417 95.5131 191.447 95.3864 191.48C95.2664 191.507 95.1631 191.54 95.0764 191.58V194.99ZM97.5078 188.49C97.5744 188.47 97.6811 188.45 97.8278 188.43C97.9744 188.403 98.1244 188.39 98.2778 188.39C98.4244 188.39 98.5544 188.4 98.6678 188.42C98.7878 188.44 98.8878 188.48 98.9678 188.54C99.0478 188.6 99.1078 188.683 99.1478 188.79C99.1878 188.89 99.2078 189.023 99.2078 189.19V190.17C99.3744 190.103 99.5311 190.057 99.6778 190.03C99.8311 190.003 99.9978 189.99 100.178 189.99C100.498 189.99 100.801 190.047 101.088 190.16C101.374 190.273 101.628 190.44 101.848 190.66C102.068 190.873 102.241 191.14 102.368 191.46C102.494 191.78 102.558 192.15 102.558 192.57C102.558 193.003 102.491 193.383 102.358 193.71C102.231 194.03 102.051 194.297 101.818 194.51C101.584 194.723 101.298 194.887 100.958 195C100.624 195.107 100.254 195.16 99.8478 195.16C99.4078 195.16 99.0344 195.107 98.7278 195C98.4211 194.9 98.1611 194.773 97.9478 194.62C97.6544 194.413 97.5078 194.147 97.5078 193.82V188.49ZM99.8478 193.82C100.154 193.82 100.391 193.717 100.558 193.51C100.731 193.297 100.818 192.983 100.818 192.57C100.818 192.15 100.731 191.837 100.558 191.63C100.384 191.423 100.151 191.32 99.8578 191.32C99.7244 191.32 99.6078 191.333 99.5078 191.36C99.4144 191.387 99.3111 191.427 99.1978 191.48V193.66C99.2711 193.707 99.3578 193.747 99.4578 193.78C99.5644 193.807 99.6944 193.82 99.8478 193.82ZM108.416 192.57C108.416 192.983 108.353 193.353 108.226 193.68C108.1 194 107.92 194.27 107.686 194.49C107.46 194.71 107.186 194.877 106.866 194.99C106.546 195.103 106.19 195.16 105.796 195.16C105.403 195.16 105.046 195.1 104.726 194.98C104.406 194.86 104.13 194.69 103.896 194.47C103.67 194.243 103.493 193.97 103.366 193.65C103.24 193.33 103.176 192.97 103.176 192.57C103.176 192.177 103.24 191.82 103.366 191.5C103.493 191.18 103.67 190.91 103.896 190.69C104.13 190.463 104.406 190.29 104.726 190.17C105.046 190.05 105.403 189.99 105.796 189.99C106.19 189.99 106.546 190.053 106.866 190.18C107.186 190.3 107.46 190.473 107.686 190.7C107.92 190.92 108.1 191.19 108.226 191.51C108.353 191.83 108.416 192.183 108.416 192.57ZM104.916 192.57C104.916 192.977 104.993 193.29 105.146 193.51C105.306 193.723 105.526 193.83 105.806 193.83C106.086 193.83 106.3 193.72 106.446 193.5C106.6 193.28 106.676 192.97 106.676 192.57C106.676 192.17 106.6 191.863 106.446 191.65C106.293 191.43 106.076 191.32 105.796 191.32C105.516 191.32 105.3 191.43 105.146 191.65C104.993 191.863 104.916 192.17 104.916 192.57ZM111.345 193.92C111.458 193.92 111.582 193.91 111.715 193.89C111.855 193.863 111.958 193.83 112.025 193.79V192.99L111.305 193.05C111.118 193.063 110.965 193.103 110.845 193.17C110.725 193.237 110.665 193.337 110.665 193.47C110.665 193.603 110.715 193.713 110.815 193.8C110.922 193.88 111.098 193.92 111.345 193.92ZM111.265 189.99C111.625 189.99 111.952 190.027 112.245 190.1C112.545 190.173 112.798 190.287 113.005 190.44C113.218 190.587 113.382 190.777 113.495 191.01C113.608 191.237 113.665 191.507 113.665 191.82V194.06C113.665 194.233 113.615 194.377 113.515 194.49C113.422 194.597 113.308 194.69 113.175 194.77C112.742 195.03 112.132 195.16 111.345 195.16C110.992 195.16 110.672 195.127 110.385 195.06C110.105 194.993 109.862 194.893 109.655 194.76C109.455 194.627 109.298 194.457 109.185 194.25C109.078 194.043 109.025 193.803 109.025 193.53C109.025 193.07 109.162 192.717 109.435 192.47C109.708 192.223 110.132 192.07 110.705 192.01L112.015 191.87V191.8C112.015 191.607 111.928 191.47 111.755 191.39C111.588 191.303 111.345 191.26 111.025 191.26C110.772 191.26 110.525 191.287 110.285 191.34C110.045 191.393 109.828 191.46 109.635 191.54C109.548 191.48 109.475 191.39 109.415 191.27C109.355 191.143 109.325 191.013 109.325 190.88C109.325 190.707 109.365 190.57 109.445 190.47C109.532 190.363 109.662 190.273 109.835 190.2C110.028 190.127 110.255 190.073 110.515 190.04C110.782 190.007 111.032 189.99 111.265 189.99ZM116.405 194.99C116.338 195.01 116.231 195.03 116.085 195.05C115.945 195.07 115.798 195.08 115.645 195.08C115.498 195.08 115.365 195.07 115.245 195.05C115.131 195.03 115.035 194.99 114.955 194.93C114.875 194.87 114.811 194.79 114.765 194.69C114.725 194.583 114.705 194.447 114.705 194.28V191.28C114.705 191.127 114.731 190.997 114.785 190.89C114.845 190.777 114.928 190.677 115.035 190.59C115.141 190.503 115.271 190.427 115.425 190.36C115.585 190.287 115.755 190.223 115.935 190.17C116.115 190.117 116.301 190.077 116.495 190.05C116.688 190.017 116.881 190 117.075 190C117.395 190 117.648 190.063 117.835 190.19C118.021 190.31 118.115 190.51 118.115 190.79C118.115 190.883 118.101 190.977 118.075 191.07C118.048 191.157 118.015 191.237 117.975 191.31C117.835 191.31 117.691 191.317 117.545 191.33C117.398 191.343 117.255 191.363 117.115 191.39C116.975 191.417 116.841 191.447 116.715 191.48C116.595 191.507 116.491 191.54 116.405 191.58V194.99ZM118.42 192.57C118.42 192.13 118.487 191.75 118.62 191.43C118.754 191.103 118.937 190.833 119.17 190.62C119.41 190.407 119.687 190.25 120 190.15C120.32 190.043 120.664 189.99 121.03 189.99C121.164 189.99 121.294 190.003 121.42 190.03C121.547 190.05 121.65 190.077 121.73 190.11V188.49C121.797 188.47 121.904 188.45 122.05 188.43C122.197 188.403 122.347 188.39 122.5 188.39C122.647 188.39 122.777 188.4 122.89 188.42C123.01 188.44 123.11 188.48 123.19 188.54C123.27 188.6 123.33 188.683 123.37 188.79C123.41 188.89 123.43 189.023 123.43 189.19V193.93C123.43 194.243 123.284 194.493 122.99 194.68C122.797 194.807 122.547 194.917 122.24 195.01C121.934 195.11 121.58 195.16 121.18 195.16C120.747 195.16 120.357 195.1 120.01 194.98C119.67 194.86 119.38 194.687 119.14 194.46C118.907 194.233 118.727 193.963 118.6 193.65C118.48 193.33 118.42 192.97 118.42 192.57ZM121.26 191.32C120.9 191.32 120.624 191.423 120.43 191.63C120.237 191.837 120.14 192.15 120.14 192.57C120.14 192.983 120.23 193.297 120.41 193.51C120.59 193.717 120.85 193.82 121.19 193.82C121.31 193.82 121.417 193.803 121.51 193.77C121.61 193.73 121.687 193.687 121.74 193.64V191.44C121.607 191.36 121.447 191.32 121.26 191.32Z" fill="black"/>
</svg>
