<svg width="635" height="236" viewBox="0 0 635 236" fill="none" xmlns="http://www.w3.org/2000/svg">
<path d="M290.945 4.09375C290.945 6.13281 289.925 7.40723 287.886 7.91699C284.148 8.7666 280.665 9.53125 277.436 10.2109C274.208 10.7207 270.724 11.7402 266.986 13.2695C258.49 17.0078 251.013 22.2754 244.556 29.0723C238.269 35.6992 232.577 43.0908 227.479 51.2471C222.551 59.4033 218.218 67.8994 214.48 76.7354C210.912 85.5713 207.598 94.0674 204.54 102.224C201.481 110.38 198.422 119.386 195.364 129.241C192.305 138.927 188.992 148.697 185.423 158.553C182.025 168.238 178.117 177.584 173.699 186.59C169.451 195.596 164.438 203.412 158.661 210.039C158.151 210.549 157.471 210.889 156.622 211.059C155.942 211.229 155.177 211.313 154.328 211.313C152.798 211.313 151.779 210.634 151.269 209.274C148.72 202.817 146.766 195.766 145.407 188.119C144.217 180.303 143.198 172.911 142.348 165.944C139.799 143.854 137.675 121.85 135.976 99.9297C134.447 77.8398 131.643 55.9199 127.565 34.1699C121.618 49.123 116.095 64.0762 110.998 79.0293C105.9 93.9824 100.462 108.936 94.6851 123.889C90.6069 134.424 86.104 144.704 81.1763 154.729C76.4185 164.755 70.5562 174.271 63.5894 183.276C60.021 187.864 56.0278 192.112 51.6099 196.021C47.1919 199.929 42.4341 203.327 37.3364 206.216C32.2388 209.104 26.8862 211.313 21.2788 212.843C15.6714 214.542 9.89404 215.392 3.94678 215.392C3.09717 215.392 2.41748 214.967 1.90771 214.117C1.22803 213.268 0.888184 212.418 0.888184 211.568C0.888184 209.529 1.82275 208.34 3.69189 208C7.09033 207.15 10.4038 206.471 13.6323 205.961C16.6909 205.281 19.9194 204.262 23.3179 202.902C31.3042 199.334 38.271 194.406 44.2183 188.119C50.3354 181.832 55.7729 174.865 60.5308 167.219C65.2886 159.572 69.3667 151.586 72.7651 143.26C76.3335 134.934 79.562 126.947 82.4507 119.301C84.9995 112.504 87.3784 105.622 89.5874 98.6553C91.9663 91.6885 94.2603 84.8066 96.4692 78.0098C98.8481 71.043 101.312 64.1611 103.861 57.3643C106.58 50.5674 109.638 43.9404 113.037 37.4834C108.279 40.3721 103.436 43.0059 98.5083 45.3848C93.5806 47.5938 88.7378 50.1426 83.98 53.0312C77.1831 57.1094 70.3862 61.9521 63.5894 67.5596C56.9624 73.167 51.9497 79.7939 48.5513 87.4404C47.7017 89.3096 47.1069 91.1787 46.7671 93.0479C46.4272 94.7471 46.0024 96.5312 45.4927 98.4004C44.9829 100.1 43.7935 100.949 41.9243 100.949C41.4146 100.949 40.5649 100.609 39.3755 99.9297C38.356 99.25 37.8462 98.5703 37.8462 97.8906C37.8462 91.6035 38.9507 85.7412 41.1597 80.3037C43.3687 74.8662 46.3423 69.8535 50.0806 65.2656C53.8188 60.5078 58.0669 56.1748 62.8247 52.2666C67.5825 48.3584 72.4253 44.875 77.353 41.8164C85.3394 36.8887 93.4956 32.1309 101.822 27.543C110.318 22.9551 118.984 19.1318 127.82 16.0732H128.33C129.689 16.0732 130.878 16.583 131.898 17.6025C133.087 18.6221 133.512 19.8115 133.172 21.1709C138.1 37.6533 141.838 54.2207 144.387 70.873C146.936 87.5254 149.23 104.348 151.269 121.34C152.628 132.895 153.988 144.449 155.347 156.004C156.707 167.389 157.726 178.943 158.406 190.668C164.693 175.205 170.385 159.742 175.483 144.279C180.75 128.646 186.358 113.099 192.305 97.6357C196.723 86.4209 201.481 75.5459 206.579 65.0107C211.676 54.3057 217.793 44.1953 224.93 34.6797C228.668 29.9219 232.832 25.5039 237.419 21.4258C242.177 17.1777 247.19 13.5244 252.458 10.4658C257.895 7.2373 263.587 4.77344 269.535 3.07422C275.482 1.20508 281.514 0.270508 287.631 0.270508C288.481 0.270508 289.246 0.695312 289.925 1.54492C290.605 2.39453 290.945 3.24414 290.945 4.09375ZM331.347 97.6992C329.676 102.32 327.71 107.284 325.449 112.593C323.286 117.901 321.025 123.407 318.666 129.108C316.404 134.81 314.143 140.66 311.882 146.656C309.72 152.653 307.753 158.551 305.984 164.352C304.313 170.152 302.936 175.854 301.855 181.457C300.774 186.962 300.233 192.123 300.233 196.94C300.233 198.907 300.675 200.824 301.56 202.691C302.445 204.559 304.018 205.493 306.279 205.493C307.852 205.493 309.72 205.051 311.882 204.166C314.045 203.281 316.11 202.298 318.076 201.217C320.14 200.037 321.91 199.005 323.384 198.12C324.957 197.235 325.891 196.793 326.186 196.793C326.776 196.793 327.267 197.088 327.661 197.678C328.152 198.169 328.398 198.71 328.398 199.3C328.398 199.89 328.152 200.332 327.661 200.627C325.4 202.593 322.598 204.559 319.255 206.525C315.913 208.492 312.767 209.868 309.818 210.654C308.54 211.048 307.114 211.244 305.542 211.244C302.986 211.244 300.921 210.654 299.348 209.475C297.775 208.393 296.546 206.968 295.662 205.198C294.777 203.429 294.187 201.512 293.892 199.447C293.597 197.285 293.45 195.171 293.45 193.106C293.45 191.632 293.499 190.157 293.597 188.683C293.794 187.208 293.99 185.733 294.187 184.259C292.417 186.913 290.206 189.862 287.551 193.106C284.995 196.351 282.144 199.398 278.999 202.249C275.951 205.002 272.658 207.312 269.119 209.18C265.678 211.048 262.237 211.981 258.796 211.981C255.847 211.981 253.439 211.342 251.571 210.064C249.801 208.885 248.425 207.361 247.442 205.493C246.459 203.527 245.771 201.364 245.377 199.005C245.083 196.646 244.935 194.286 244.935 191.927C244.935 188.781 245.132 185.733 245.525 182.784C246.016 179.737 246.606 176.738 247.294 173.789C249.85 162.189 252.996 150.834 256.732 139.726C260.468 128.617 265.137 117.803 270.741 107.284C267.89 108.955 264.99 110.479 262.041 111.855C259.19 113.232 256.339 114.756 253.488 116.427C249.654 118.786 245.82 121.539 241.986 124.685C238.25 127.83 235.498 131.566 233.728 135.892C233.236 136.875 232.892 137.809 232.696 138.693C232.597 139.578 232.401 140.512 232.106 141.495C231.909 142.38 231.27 142.822 230.189 142.822C229.697 142.822 229.157 142.626 228.567 142.232C228.075 141.839 227.83 141.348 227.83 140.758C227.83 137.317 228.419 134.122 229.599 131.173C230.877 128.125 232.548 125.324 234.613 122.768C236.677 120.212 238.987 117.901 241.543 115.837C244.198 113.674 246.852 111.757 249.506 110.086C253.93 107.333 258.403 104.777 262.925 102.418C267.546 99.9603 272.264 97.8467 277.082 96.0771C277.278 95.7822 277.524 95.5365 277.819 95.3398C278.212 95.1432 278.556 95.0449 278.851 95.0449C279.441 95.0449 279.982 95.2907 280.473 95.7822C281.063 96.1755 281.358 96.7161 281.358 97.4043C281.358 97.6992 281.309 97.8958 281.21 97.9941C279.736 102.025 277.966 106.596 275.902 111.708C273.936 116.82 271.871 122.227 269.708 127.929C267.546 133.532 265.432 139.283 263.368 145.182C261.303 151.08 259.435 156.88 257.764 162.582C256.191 168.284 254.864 173.74 253.783 178.95C252.8 184.062 252.308 188.683 252.308 192.812C252.308 194.188 252.308 195.613 252.308 197.088C252.406 198.464 252.652 199.742 253.045 200.922C253.537 202.102 254.225 203.085 255.11 203.871C256.093 204.658 257.469 205.051 259.239 205.051C261.598 205.051 263.958 204.412 266.317 203.134C271.625 200.381 276.443 196.695 280.768 192.074C285.094 187.355 288.977 182.538 292.417 177.623C293.106 176.738 293.843 175.755 294.629 174.674C295.416 173.592 296.055 172.56 296.546 171.577C296.841 170.889 297.038 170.103 297.136 169.218C297.333 168.333 297.529 167.497 297.726 166.711C298.218 165.138 298.66 163.614 299.053 162.14C299.446 160.567 299.889 158.945 300.38 157.273C303.33 147.934 306.475 138.743 309.818 129.698C313.259 120.556 317.486 111.757 322.5 103.303C323.286 102.025 324.023 100.747 324.711 99.4688C325.498 98.1908 326.333 96.9619 327.218 95.7822C327.513 95.2907 328.005 95.0449 328.693 95.0449C329.479 95.0449 330.069 95.2907 330.462 95.7822C330.954 96.2738 331.249 96.9128 331.347 97.6992ZM431.473 94.6025C431.473 95.4873 431.08 96.1755 430.293 96.667C428.229 97.945 425.771 98.9772 422.92 99.7637C420.168 100.452 417.317 101.042 414.368 101.533C411.418 101.926 408.469 102.271 405.52 102.565C402.669 102.762 400.015 102.959 397.557 103.155C393.428 103.45 389.152 103.942 384.728 104.63C380.304 105.318 376.323 106.793 372.784 109.054C372.489 109.25 372.046 109.545 371.457 109.938C370.867 110.332 370.473 110.627 370.277 110.823C369.294 111.905 368.556 113.232 368.065 114.805C367.573 116.378 367.328 117.852 367.328 119.229C367.328 122.276 368.114 124.93 369.687 127.191C371.26 129.452 373.177 131.517 375.438 133.385C377.502 135.056 379.518 136.727 381.484 138.398C383.548 140.07 385.662 141.741 387.825 143.412C390.086 145.182 392.396 147.099 394.755 149.163C397.115 151.228 399.278 153.439 401.244 155.799C403.21 158.158 404.783 160.714 405.962 163.467C407.24 166.219 407.879 169.169 407.879 172.314C407.879 176.443 406.896 180.326 404.93 183.964C402.964 187.503 400.703 190.747 398.147 193.696C393.723 198.71 388.464 202.691 382.369 205.641C376.372 208.59 369.982 210.064 363.199 210.064C358.48 210.064 353.81 209.327 349.19 207.853C344.569 206.28 340.441 204.068 336.803 201.217C333.166 198.366 330.217 194.925 327.956 190.895C325.694 186.766 324.564 182.096 324.564 176.886C324.564 172.462 325.449 167.841 327.218 163.024C329.086 158.109 331.445 153.931 334.296 150.49C334.886 149.9 335.476 149.605 336.066 149.605C336.656 149.605 337.147 149.851 337.541 150.343C338.032 150.736 338.278 151.228 338.278 151.817C338.278 152.309 338.13 152.751 337.835 153.145C335.574 156.585 333.657 160.174 332.084 163.909C330.61 167.645 329.873 171.675 329.873 176.001C329.873 180.425 330.806 184.357 332.674 187.798C334.64 191.14 337.147 193.991 340.195 196.351C343.341 198.71 346.88 200.479 350.812 201.659C354.744 202.839 358.726 203.429 362.756 203.429C368.95 203.429 374.455 202.151 379.272 199.595C384.089 196.94 388.562 193.401 392.691 188.978C394.854 186.52 396.672 183.964 398.147 181.31C399.622 178.655 400.359 175.608 400.359 172.167C400.359 169.611 399.867 167.35 398.884 165.384C397.901 163.418 396.525 161.501 394.755 159.633C392.888 157.765 390.971 156.045 389.004 154.472C387.137 152.8 385.17 151.129 383.106 149.458C381.14 147.983 378.879 146.312 376.323 144.444C373.865 142.576 371.506 140.61 369.245 138.546C366.984 136.383 364.968 134.122 363.199 131.763C361.429 129.305 360.299 126.798 359.807 124.242C359.611 123.456 359.463 122.669 359.365 121.883C359.365 121.096 359.365 120.31 359.365 119.523C359.365 116.279 359.905 113.379 360.987 110.823C362.068 108.267 363.543 106.104 365.411 104.335C367.377 102.467 369.638 100.943 372.194 99.7637C374.848 98.584 377.699 97.6992 380.747 97.1094C383.499 96.6178 386.252 96.3721 389.004 96.3721C391.757 96.2738 394.51 96.1263 397.262 95.9297C402.571 95.6348 407.83 95.389 413.041 95.1924C418.251 94.9958 423.412 94.0618 428.524 92.3906C428.622 92.3906 428.721 92.3906 428.819 92.3906C428.917 92.2923 429.065 92.2432 429.261 92.2432C429.851 92.2432 430.343 92.4889 430.736 92.9805C431.227 93.472 431.473 94.0127 431.473 94.6025ZM533.369 133.532C533.369 133.925 533.221 134.27 532.926 134.564C530.862 136.826 528.502 138.792 525.848 140.463C523.194 142.036 520.343 143.363 517.295 144.444C514.248 145.427 511.151 146.214 508.005 146.804C504.86 147.295 501.812 147.59 498.863 147.688C497.192 157.323 495.471 167.055 493.702 176.886C491.932 186.716 491.047 196.547 491.047 206.378C491.047 209.229 491.195 212.031 491.49 214.783C491.883 217.634 492.62 220.141 493.702 222.304C494.881 224.565 496.503 226.334 498.568 227.612C500.731 228.989 503.582 229.677 507.121 229.677C507.71 229.677 508.251 229.628 508.743 229.529C509.333 229.431 509.922 229.382 510.512 229.382C511.2 229.382 511.741 229.628 512.134 230.119C512.528 230.611 512.724 231.201 512.724 231.889C512.724 232.577 512.331 233.118 511.544 233.511C510.856 234.002 510.021 234.346 509.038 234.543C508.153 234.74 507.219 234.887 506.236 234.985C505.253 235.084 504.515 235.133 504.024 235.133C499.797 235.133 496.307 234.248 493.554 232.479C490.9 230.807 488.786 228.546 487.213 225.695C485.64 222.943 484.51 219.797 483.822 216.258C483.232 212.817 482.937 209.376 482.937 205.936C482.937 201.217 483.183 196.4 483.674 191.484C484.264 186.569 484.952 181.654 485.739 176.738C486.624 171.725 487.557 166.76 488.541 161.845C489.524 156.929 490.458 152.161 491.342 147.541C489.278 147.443 487.213 147.344 485.149 147.246C483.084 147.148 481.02 147.099 478.956 147.099C477.874 147.099 476.842 147.099 475.859 147.099C474.876 147.099 473.844 147.148 472.762 147.246C471.091 149.9 469.321 152.506 467.454 155.062C465.684 157.618 463.865 160.174 461.998 162.729C458.557 167.448 454.87 172.167 450.938 176.886C447.006 181.506 442.778 185.832 438.256 189.862C433.833 193.893 429.065 197.481 423.953 200.627C418.841 203.773 413.335 206.132 407.437 207.705C405.766 208.197 403.996 208.59 402.128 208.885C400.162 209.278 398.294 209.475 396.525 209.475C395.935 209.475 395.493 209.229 395.198 208.737C394.805 208.246 394.608 207.754 394.608 207.263C394.608 206.083 395.099 205.395 396.083 205.198C398.245 204.707 400.31 204.264 402.276 203.871C404.242 203.38 406.257 202.741 408.322 201.954C413.434 199.988 418.202 197.432 422.625 194.286C427.049 191.042 431.178 187.503 435.012 183.669C438.944 179.737 442.631 175.608 446.072 171.282C449.513 166.957 452.806 162.631 455.952 158.306C457.131 156.634 458.262 155.012 459.343 153.439C460.425 151.867 461.506 150.244 462.587 148.573C458.753 149.36 455.411 150.49 452.56 151.965C449.709 153.341 446.711 155.16 443.565 157.421C443.368 157.618 443.024 157.716 442.533 157.716C442.041 157.716 441.5 157.47 440.911 156.979C440.419 156.389 440.173 155.848 440.173 155.356C440.173 154.865 440.321 154.472 440.616 154.177C443.958 150.441 448.038 147.541 452.855 145.477C457.77 143.314 462.637 141.839 467.454 141.053C469.42 138.005 471.484 134.81 473.647 131.468C475.81 128.027 478.022 124.635 480.283 121.293C482.642 117.852 485.051 114.608 487.508 111.561C489.966 108.415 492.522 105.613 495.176 103.155C495.766 102.762 496.208 102.565 496.503 102.565H496.798C496.7 101.091 496.454 99.6162 496.061 98.1416C495.766 96.5687 495.225 95.1924 494.439 94.0127C493.751 92.7347 492.817 91.7025 491.637 90.916C490.458 90.1296 488.983 89.7363 487.213 89.7363C484.854 89.7363 482.396 90.1787 479.84 91.0635C477.383 91.9482 475.023 92.9313 472.762 94.0127C470.599 94.9958 468.732 95.9297 467.159 96.8145C465.586 97.6009 464.603 97.9941 464.209 97.9941C463.62 97.9941 463.079 97.7484 462.587 97.2568C462.194 96.667 461.998 96.1263 461.998 95.6348C461.998 94.9466 462.342 94.3568 463.03 93.8652C463.521 93.472 464.111 93.1279 464.799 92.833C465.487 92.4398 466.126 92.0465 466.716 91.6533C469.96 89.7855 473.401 88.0651 477.039 86.4922C480.774 84.9193 484.608 84.1328 488.541 84.1328C489.327 84.1328 490.163 84.2803 491.047 84.5752C491.932 84.7718 492.719 85.0176 493.407 85.3125C495.373 86.1973 496.995 87.4753 498.273 89.1465C499.649 90.8177 500.681 92.6855 501.37 94.75C502.156 96.7161 502.697 98.8298 502.992 101.091C503.287 103.254 503.434 105.318 503.434 107.284C503.434 112.789 503.139 118.245 502.549 123.652C501.959 128.961 501.222 134.319 500.337 139.726C504.466 139.234 508.497 138.497 512.429 137.514C516.46 136.432 520.392 135.105 524.226 133.532C525.307 133.139 526.34 132.746 527.323 132.353C528.306 131.861 529.338 131.369 530.419 130.878H530.862C531.452 130.878 531.992 131.173 532.484 131.763C533.074 132.254 533.369 132.844 533.369 133.532ZM496.798 109.349C495.52 111.511 493.898 114.215 491.932 117.459C489.966 120.605 488 123.751 486.034 126.896C484.166 129.944 482.445 132.697 480.873 135.154C479.3 137.612 478.267 139.185 477.776 139.873C478.562 139.873 479.349 139.873 480.135 139.873C481.02 139.775 481.905 139.726 482.79 139.726C484.264 139.726 485.739 139.775 487.213 139.873C488.786 139.971 490.31 140.021 491.785 140.021H492.817C493.8 134.909 494.636 129.846 495.324 124.832C496.11 119.72 496.602 114.559 496.798 109.349ZM634.084 108.759C634.084 112.298 633.249 115.591 631.578 118.639C627.842 125.324 623.074 131.173 617.274 136.187C611.572 141.102 605.33 145.231 598.546 148.573C604.936 149.655 609.999 152.407 613.735 156.831C617.471 161.255 619.338 166.711 619.338 173.199C619.338 178.508 618.257 183.571 616.094 188.388C613.931 193.106 610.982 197.285 607.247 200.922C603.609 204.559 599.382 207.41 594.565 209.475C589.748 211.637 584.685 212.719 579.376 212.719C574.068 212.719 569.005 211.834 564.188 210.064C559.371 208.393 554.75 206.132 550.327 203.281C549.54 202.79 548.754 202.298 547.967 201.807C547.181 201.217 546.394 200.627 545.608 200.037C545.116 199.742 544.871 199.3 544.871 198.71C544.871 198.513 544.969 198.218 545.166 197.825C541.037 202.151 536.318 205.641 531.009 208.295C525.701 211.048 520.097 212.424 514.199 212.424C513.609 212.424 513.167 212.178 512.872 211.687C512.478 211.195 512.282 210.703 512.282 210.212C512.282 209.032 512.822 208.344 513.904 208.147C515.87 207.656 517.738 207.263 519.507 206.968C521.375 206.575 523.292 205.936 525.258 205.051C529.879 202.986 533.958 200.135 537.498 196.498C541.037 192.861 544.182 188.83 546.935 184.406C549.688 179.982 552.047 175.362 554.013 170.545C556.078 165.63 557.945 160.96 559.617 156.536C561.091 152.604 562.468 148.672 563.746 144.739C565.024 140.709 566.302 136.727 567.58 132.795C568.956 128.764 570.381 124.832 571.856 120.998C573.429 117.066 575.198 113.232 577.165 109.496C574.412 111.167 571.61 112.642 568.759 113.92C565.908 115.198 563.156 116.673 560.501 118.344C556.373 120.9 552.293 123.898 548.262 127.339C544.232 130.681 541.332 134.663 539.562 139.283C539.169 140.266 538.874 141.2 538.677 142.085C538.481 142.97 538.284 143.854 538.087 144.739C537.792 145.624 537.153 146.066 536.17 146.066C535.777 146.066 535.236 145.919 534.548 145.624C533.958 145.231 533.664 144.838 533.664 144.444C533.664 140.414 534.499 136.629 536.17 133.09C537.842 129.551 540.054 126.257 542.806 123.21C545.559 120.162 548.705 117.361 552.244 114.805C555.881 112.249 559.617 109.889 563.451 107.727C567.285 105.564 571.119 103.647 574.953 101.976C578.787 100.206 582.277 98.6331 585.422 97.2568C585.619 97.1585 585.766 97.0602 585.865 96.9619C586.061 96.8636 586.258 96.8145 586.455 96.8145C587.044 96.8145 587.634 97.0602 588.224 97.5518C588.814 97.945 589.109 98.4857 589.109 99.1738C589.109 99.2721 588.863 99.9603 588.372 101.238C587.88 102.516 587.29 103.942 586.602 105.515C585.914 106.989 585.275 108.415 584.685 109.791C584.095 111.167 583.751 112.052 583.653 112.445C585.816 110.479 588.273 108.513 591.026 106.547C593.877 104.482 596.826 102.615 599.874 100.943C603.019 99.2721 606.165 97.8958 609.311 96.8145C612.555 95.7331 615.701 95.1924 618.749 95.1924C623.074 95.1924 626.711 96.3721 629.661 98.7314C632.61 100.993 634.084 104.335 634.084 108.759ZM626.711 108.759C626.711 106.203 625.827 104.482 624.057 103.598C622.386 102.713 620.42 102.271 618.159 102.271C614.915 102.271 611.523 102.91 607.984 104.188C604.543 105.465 601.152 107.088 597.809 109.054C594.467 111.02 591.272 113.183 588.224 115.542C585.177 117.803 582.473 119.966 580.114 122.03C577.853 128.224 575.641 134.417 573.478 140.61C571.315 146.804 569.054 152.997 566.695 159.19C564.335 165.285 561.73 171.282 558.879 177.181C556.028 182.981 552.588 188.486 548.557 193.696C547.967 194.581 547.23 195.466 546.345 196.351C546.542 196.252 546.837 196.203 547.23 196.203C547.427 196.203 547.722 196.301 548.115 196.498C552.735 199.152 557.405 201.463 562.124 203.429C566.941 205.395 572.053 206.378 577.459 206.378C581.785 206.378 585.963 205.542 589.994 203.871C594.123 202.2 597.76 199.89 600.906 196.94C604.052 193.991 606.558 190.6 608.426 186.766C610.392 182.833 611.375 178.655 611.375 174.231C611.375 170.201 610.589 166.957 609.016 164.499C607.542 161.943 605.526 159.928 602.97 158.453C600.513 156.979 597.662 155.946 594.417 155.356C591.272 154.767 588.028 154.423 584.685 154.324C584.488 154.423 584.194 154.57 583.8 154.767C583.407 154.865 582.965 155.012 582.473 155.209C581.982 155.307 581.539 155.406 581.146 155.504C580.753 155.602 580.507 155.651 580.409 155.651C579.622 155.651 579.032 155.406 578.639 154.914C578.246 154.324 578.049 153.685 578.049 152.997C578.049 152.112 578.541 151.473 579.524 151.08C579.819 150.294 580.212 149.9 580.704 149.9C581.195 149.802 581.687 149.655 582.178 149.458C583.161 149.065 584.292 148.426 585.57 147.541C586.946 146.656 588.126 145.968 589.109 145.477C591.96 143.805 594.811 142.085 597.662 140.315C600.611 138.448 603.511 136.531 606.362 134.564C608.131 133.286 610.147 131.664 612.408 129.698C614.767 127.732 616.979 125.569 619.043 123.21C621.206 120.851 623.025 118.442 624.5 115.984C625.974 113.428 626.711 111.02 626.711 108.759Z" fill="black"/>
</svg>
