<svg width="318" height="129" viewBox="0 0 318 129" fill="none" xmlns="http://www.w3.org/2000/svg">
<path d="M172.417 2.90625C172.417 4.11719 171.812 4.87402 170.601 5.17676C168.381 5.68132 166.312 6.13542 164.395 6.53906C162.477 6.8418 160.409 7.44727 158.188 8.35547C153.143 10.5755 148.703 13.7038 144.868 17.7402C141.134 21.6758 137.754 26.0654 134.727 30.9092C131.8 35.7529 129.227 40.7985 127.007 46.0459C124.888 51.2933 122.92 56.3389 121.104 61.1826C119.287 66.0264 117.471 71.3747 115.654 77.2275C113.838 82.9795 111.87 88.7819 109.751 94.6348C107.733 100.387 105.412 105.937 102.788 111.285C100.265 116.633 97.2884 121.275 93.8574 125.211C93.5547 125.514 93.151 125.715 92.6465 125.816C92.2428 125.917 91.7887 125.968 91.2842 125.968C90.376 125.968 89.7705 125.564 89.4678 124.757C87.9541 120.922 86.7936 116.734 85.9863 112.193C85.2799 107.551 84.6745 103.162 84.1699 99.0244C82.6562 85.9059 81.3949 72.8379 80.3857 59.8203C79.4775 46.7018 77.8125 33.6842 75.3906 20.7676C71.8587 29.6478 68.5791 38.528 65.5518 47.4082C62.5244 56.2884 59.2952 65.1686 55.8643 74.0488C53.4424 80.3053 50.7682 86.4105 47.8418 92.3643C45.0163 98.318 41.5348 103.969 37.3975 109.317C35.2783 112.042 32.9069 114.565 30.2832 116.886C27.6595 119.207 24.834 121.225 21.8066 122.94C18.7793 124.656 15.6006 125.968 12.2705 126.876C8.94043 127.885 5.50944 128.39 1.97754 128.39C1.47298 128.39 1.06934 128.137 0.766602 127.633C0.362956 127.128 0.161133 126.624 0.161133 126.119C0.161133 124.908 0.716146 124.202 1.82617 124C3.8444 123.495 5.81217 123.092 7.72949 122.789C9.5459 122.385 11.4632 121.78 13.4814 120.973C18.2243 118.854 22.3617 115.927 25.8936 112.193C29.5264 108.46 32.7555 104.322 35.5811 99.7812C38.4066 95.2402 40.8285 90.4974 42.8467 85.5527C44.9658 80.6081 46.8831 75.8652 48.5986 71.3242C50.1123 67.2878 51.5251 63.2008 52.8369 59.0635C54.2497 54.9261 55.612 50.8392 56.9238 46.8027C58.3366 42.6654 59.7998 38.5785 61.3135 34.542C62.9281 30.5055 64.7445 26.57 66.7627 22.7354C63.9372 24.4508 61.0612 26.015 58.1348 27.4277C55.2083 28.7396 52.3324 30.2533 49.5068 31.9688C45.4704 34.3906 41.4339 37.2666 37.3975 40.5967C33.4619 43.9268 30.485 47.8623 28.4668 52.4033C27.9622 53.5133 27.609 54.6234 27.4072 55.7334C27.2054 56.7425 26.9531 57.8021 26.6504 58.9121C26.3477 59.9212 25.6413 60.4258 24.5312 60.4258C24.2285 60.4258 23.724 60.224 23.0176 59.8203C22.4121 59.4167 22.1094 59.013 22.1094 58.6094C22.1094 54.8757 22.7653 51.3942 24.0771 48.165C25.389 44.9359 27.1549 41.959 29.375 39.2344C31.5951 36.4089 34.1178 33.8356 36.9434 31.5146C39.7689 29.1937 42.6449 27.125 45.5713 25.3086C50.3141 22.3822 55.1579 19.5566 60.1025 16.832C65.1481 14.1074 70.2946 11.8369 75.542 10.0205H75.8447C76.652 10.0205 77.3584 10.3232 77.9639 10.9287C78.6702 11.5342 78.9225 12.2406 78.7207 13.0479C81.6471 22.8363 83.8672 32.6751 85.3809 42.5645C86.8945 52.4538 88.2568 62.444 89.4678 72.5352C90.2751 79.3971 91.0824 86.2591 91.8896 93.1211C92.6969 99.8822 93.3024 106.744 93.7061 113.707C97.4398 104.524 100.82 95.3411 103.848 86.1582C106.976 76.8743 110.306 67.641 113.838 58.458C116.462 51.7979 119.287 45.3395 122.314 39.083C125.342 32.7256 128.975 26.7214 133.213 21.0703C135.433 18.2448 137.905 15.6211 140.63 13.1992C143.455 10.6764 146.432 8.50684 149.561 6.69043C152.79 4.77311 156.17 3.3099 159.702 2.30078C163.234 1.19076 166.816 0.635742 170.449 0.635742C170.954 0.635742 171.408 0.888021 171.812 1.39258C172.215 1.89714 172.417 2.40169 172.417 2.90625ZM126.051 76.16C127.462 74.0747 129.486 73.032 132.123 73.032C134.208 73.032 135.895 73.7067 137.183 75.056C138.532 76.4053 139.207 78.1227 139.207 80.208V104.312C139.207 109.28 140.526 113.236 143.163 116.18C145.862 119.124 149.572 120.596 154.295 120.596C159.079 120.596 162.82 119.124 165.519 116.18C168.279 113.236 169.659 109.28 169.659 104.312V73.584H174.167V104.312C174.167 110.445 172.388 115.383 168.831 119.124C165.274 122.804 160.49 124.644 154.479 124.644C148.407 124.644 143.592 122.804 140.035 119.124C136.539 115.444 134.791 110.507 134.791 104.312V80.208L134.699 79.38C134.699 78.828 134.423 78.368 133.871 78C133.319 77.632 132.706 77.448 132.031 77.448C131.05 77.448 130.283 77.8467 129.731 78.644L126.051 76.16ZM185.362 111.948C186.527 114.708 188.367 117.039 190.882 118.94C193.396 120.841 196.279 121.792 199.53 121.792C203.026 121.792 205.939 120.719 208.27 118.572C210.6 116.425 211.766 113.665 211.766 110.292C211.766 107.839 211.122 105.907 209.834 104.496C208.607 103.024 206.828 101.675 204.498 100.448L200.358 98.424C194.592 96.216 190.514 93.2107 188.122 89.408C187.14 87.752 186.65 86.004 186.65 84.164C186.65 80.5453 187.907 77.632 190.422 75.424C192.998 73.1547 196.187 72.02 199.99 72.02C203.179 72.02 205.878 72.8173 208.086 74.412C210.355 75.9453 211.49 78.0613 211.49 80.76C211.49 82.7227 210.876 84.2867 209.65 85.452C208.484 86.6173 206.951 87.2 205.05 87.2C204.988 87.2 204.866 87.2 204.682 87.2C204.559 87.1387 204.467 87.108 204.406 87.108L204.682 83.336C204.804 83.3973 204.988 83.428 205.234 83.428C205.847 83.428 206.368 83.1213 206.798 82.508C207.227 81.8947 207.442 81.2507 207.442 80.576C207.442 79.104 206.644 78 205.05 77.264C203.516 76.4667 201.83 76.068 199.99 76.068C197.414 76.068 195.206 76.804 193.366 78.276C191.587 79.748 190.698 81.7107 190.698 84.164C190.698 86.372 191.986 88.4573 194.562 90.42C195.85 91.4627 197.536 92.5053 199.622 93.548C201.707 94.5293 203.608 95.4493 205.326 96.308C207.043 97.1053 208.73 98.0867 210.386 99.252C212.103 100.417 213.422 101.951 214.342 103.852C215.323 105.692 215.814 107.9 215.814 110.476C215.814 114.892 214.25 118.572 211.122 121.516C207.994 124.399 204.16 125.84 199.622 125.84C193.795 125.84 188.796 123.417 184.626 118.572C183.338 117.039 182.326 115.321 181.59 113.42L185.362 111.948ZM226.418 117.928C226.786 119.277 227.583 119.952 228.81 119.952C229.914 119.952 230.65 119.461 231.018 118.48L250.43 73.492H251.81L273.706 124H269.014L262.022 107.256H240.31L234.882 120.32C233.717 122.957 231.693 124.276 228.81 124.276C227.154 124.276 225.682 123.724 224.394 122.62C223.167 121.516 222.431 120.228 222.186 118.756L226.418 117.928ZM250.338 83.336L242.058 103.116H260.274L251.902 83.336C251.35 82.048 251.074 81.2507 251.074 80.944L250.338 83.336ZM284 76.988C283.019 76.988 282.16 77.356 281.424 78.092C280.749 78.7667 280.412 79.5947 280.412 80.576H276.272C276.272 77.264 277.836 74.872 280.964 73.4C281.884 73.032 282.835 72.848 283.816 72.848H300.192C306.939 72.848 311.539 75.4853 313.992 80.76C314.728 82.416 315.096 84.2253 315.096 86.188C315.096 90.5427 313.225 93.8547 309.484 96.124C309.423 96.1853 309.055 96.3387 308.38 96.584L307.276 96.952C307.521 97.136 307.92 97.228 308.472 97.228L309.576 97.688C314.728 100.509 317.304 104.711 317.304 110.292C317.304 113.727 316.384 116.579 314.544 118.848C312.765 121.117 310.373 122.743 307.368 123.724C305.221 124.399 302.4 124.736 298.904 124.736C295.408 124.736 292.219 124.613 289.336 124.368L285.38 123.908V76.988H284ZM307.736 92.904C309.699 91.248 310.68 88.9787 310.68 86.096C310.68 83.2133 309.821 80.9747 308.104 79.38C306.387 77.7853 304.087 76.988 301.204 76.988H289.888V120.504H294.672C295.285 120.504 295.868 120.535 296.42 120.596C297.033 120.596 297.524 120.627 297.892 120.688C298.26 120.688 298.475 120.688 298.536 120.688C308.165 120.688 312.98 117.161 312.98 110.108C312.98 106.796 311.784 104.189 309.392 102.288C307.061 100.325 304.148 99.344 300.652 99.344H293.66V95.296H300.1C303.228 95.296 305.773 94.4987 307.736 92.904Z" fill="black"/>
</svg>
