<svg width="613" height="224" viewBox="0 0 613 224" fill="none" xmlns="http://www.w3.org/2000/svg">
<path d="M290.375 4.09375C290.375 6.13281 289.355 7.40723 287.316 7.91699C283.578 8.7666 280.095 9.53125 276.866 10.2109C273.638 10.7207 270.154 11.7402 266.416 13.2695C257.92 17.0078 250.443 22.2754 243.986 29.0723C237.699 35.6992 232.007 43.0908 226.909 51.2471C221.981 59.4033 217.648 67.8994 213.91 76.7354C210.342 85.5713 207.028 94.0674 203.97 102.224C200.911 110.38 197.853 119.386 194.794 129.241C191.735 138.927 188.422 148.697 184.854 158.553C181.455 168.238 177.547 177.584 173.129 186.59C168.881 195.596 163.868 203.412 158.091 210.039C157.581 210.549 156.901 210.889 156.052 211.059C155.372 211.229 154.607 211.313 153.758 211.313C152.229 211.313 151.209 210.634 150.699 209.274C148.15 202.817 146.196 195.766 144.837 188.119C143.647 180.303 142.628 172.911 141.778 165.944C139.229 143.854 137.105 121.85 135.406 99.9297C133.877 77.8398 131.073 55.9199 126.995 34.1699C121.048 49.123 115.525 64.0762 110.428 79.0293C105.33 93.9824 99.8926 108.936 94.1152 123.889C90.0371 134.424 85.5342 144.704 80.6064 154.729C75.8486 164.755 69.9863 174.271 63.0195 183.276C59.4512 187.864 55.458 192.112 51.04 196.021C46.6221 199.929 41.8643 203.327 36.7666 206.216C31.6689 209.104 26.3164 211.313 20.709 212.843C15.1016 214.542 9.32422 215.392 3.37695 215.392C2.52734 215.392 1.84766 214.967 1.33789 214.117C0.658203 213.268 0.318359 212.418 0.318359 211.568C0.318359 209.529 1.25293 208.34 3.12207 208C6.52051 207.15 9.83398 206.471 13.0625 205.961C16.1211 205.281 19.3496 204.262 22.748 202.902C30.7344 199.334 37.7012 194.406 43.6484 188.119C49.7656 181.832 55.2031 174.865 59.9609 167.219C64.7188 159.572 68.7969 151.586 72.1953 143.26C75.7637 134.934 78.9922 126.947 81.8809 119.301C84.4297 112.504 86.8086 105.622 89.0176 98.6553C91.3965 91.6885 93.6904 84.8066 95.8994 78.0098C98.2783 71.043 100.742 64.1611 103.291 57.3643C106.01 50.5674 109.068 43.9404 112.467 37.4834C107.709 40.3721 102.866 43.0059 97.9385 45.3848C93.0107 47.5938 88.168 50.1426 83.4102 53.0312C76.6133 57.1094 69.8164 61.9521 63.0195 67.5596C56.3926 73.167 51.3799 79.7939 47.9814 87.4404C47.1318 89.3096 46.5371 91.1787 46.1973 93.0479C45.8574 94.7471 45.4326 96.5312 44.9229 98.4004C44.4131 100.1 43.2236 100.949 41.3545 100.949C40.8447 100.949 39.9951 100.609 38.8057 99.9297C37.7861 99.25 37.2764 98.5703 37.2764 97.8906C37.2764 91.6035 38.3809 85.7412 40.5898 80.3037C42.7988 74.8662 45.7725 69.8535 49.5107 65.2656C53.249 60.5078 57.4971 56.1748 62.2549 52.2666C67.0127 48.3584 71.8555 44.875 76.7832 41.8164C84.7695 36.8887 92.9258 32.1309 101.252 27.543C109.748 22.9551 118.414 19.1318 127.25 16.0732H127.76C129.119 16.0732 130.309 16.583 131.328 17.6025C132.518 18.6221 132.942 19.8115 132.603 21.1709C137.53 37.6533 141.269 54.2207 143.817 70.873C146.366 87.5254 148.66 104.348 150.699 121.34C152.059 132.895 153.418 144.449 154.777 156.004C156.137 167.389 157.156 178.943 157.836 190.668C164.123 175.205 169.815 159.742 174.913 144.279C180.181 128.646 185.788 113.099 191.735 97.6357C196.153 86.4209 200.911 75.5459 206.009 65.0107C211.106 54.3057 217.224 44.1953 224.36 34.6797C228.099 29.9219 232.262 25.5039 236.85 21.4258C241.607 17.1777 246.62 13.5244 251.888 10.4658C257.325 7.2373 263.018 4.77344 268.965 3.07422C274.912 1.20508 280.944 0.270508 287.062 0.270508C287.911 0.270508 288.676 0.695312 289.355 1.54492C290.035 2.39453 290.375 3.24414 290.375 4.09375ZM253.937 218.244C247.501 215.88 242.708 212.203 239.556 207.212C236.535 202.09 235.025 194.932 235.025 185.739C235.025 177.596 236.338 166.958 238.965 153.825C240.935 144.238 244.284 132.812 249.012 119.547C253.871 106.151 258.796 95.0533 263.787 86.254C266.676 81.2633 268.909 77.98 270.485 76.404C272.061 74.828 273.637 74.1713 275.213 74.434C277.314 74.9593 278.956 76.01 280.138 77.586C281.32 79.0307 281.911 80.6067 281.911 82.314C281.911 85.072 280.597 87.3047 277.971 89.012C276.92 90.194 275.475 92.558 273.637 96.104C271.798 99.5187 270.616 101.686 270.091 102.605L265.363 111.47C260.766 124.603 257.351 134.716 255.119 141.808C253.017 148.9 251.31 156.386 249.997 164.266C248.158 173.065 246.976 179.566 246.451 183.769C246.057 187.84 245.86 191.058 245.86 193.422C245.86 195.786 245.86 197.296 245.86 197.953C246.254 198.741 246.779 199.792 247.436 201.105C248.092 202.287 248.683 203.206 249.209 203.863C249.734 204.388 250.325 204.717 250.982 204.848C252.295 205.505 253.937 205.833 255.907 205.833C259.453 205.833 263.13 204.717 266.939 202.484C267.464 201.433 268.186 200.645 269.106 200.12C270.156 199.463 270.813 199.069 271.076 198.938C271.338 199.332 271.535 199.529 271.667 199.529C272.061 199.529 272.389 199.069 272.652 198.15V197.953C272.652 197.296 273.243 196.377 274.425 195.195C275.738 194.67 277.905 192.634 280.926 189.088C283.946 185.542 286.704 181.865 289.2 178.056C291.826 174.247 293.14 171.949 293.14 171.161C293.14 170.504 293.468 169.782 294.125 168.994C294.913 168.206 295.438 167.681 295.701 167.418C296.62 166.499 298.918 162.493 302.596 155.401C306.404 148.309 309.885 141.48 313.037 134.913C315.007 128.478 317.699 119.416 321.114 107.727C324.66 96.0383 326.761 88.5523 327.418 85.269C327.68 83.5617 328.074 82.117 328.6 80.935C329.125 79.753 329.453 78.965 329.585 78.571C330.504 78.3083 331.883 78.7023 333.722 79.753C335.692 80.6723 336.939 81.2633 337.465 81.526C338.121 82.314 338.45 83.4303 338.45 84.875C338.45 86.451 337.859 89.7343 336.677 94.725C336.02 97.3517 335.166 101.292 334.116 106.545C332.014 114.819 329.519 122.633 326.63 129.988C323.74 137.343 319.997 146.208 315.401 156.583C314.875 157.765 314.284 159.078 313.628 160.523C312.971 161.836 312.314 163.347 311.658 165.054V166.236C310.082 167.155 308.834 168.534 307.915 170.373C307.521 171.03 306.995 171.949 306.339 173.131C305.813 174.182 305.222 174.904 304.566 175.298C304.172 176.48 303.778 177.465 303.384 178.253C303.121 179.041 302.924 179.566 302.793 179.829C302.661 180.617 302.07 181.339 301.02 181.996C299.969 182.653 299.312 183.047 299.05 183.178C298.524 183.441 298.13 184.032 297.868 184.951C297.605 185.87 297.342 186.461 297.08 186.724C292.352 193.685 287.033 200.054 281.123 205.833C275.344 211.48 269.894 215.223 264.772 217.062C262.145 218.113 259.847 218.638 257.877 218.638C256.169 218.638 254.856 218.507 253.937 218.244ZM347.792 215.486L347.989 214.895C347.989 213.582 346.872 212.859 344.64 212.728C341.882 211.021 339.386 208.788 337.154 206.03C335.052 203.272 333.608 200.842 332.82 198.741C331.9 196.64 331.441 195.523 331.441 195.392C331.441 194.998 331.638 194.67 332.032 194.407C332.557 194.144 333.148 193.816 333.805 193.422C334.593 192.765 335.446 192.437 336.366 192.437C336.891 192.437 337.351 192.765 337.745 193.422C338.27 193.947 338.927 194.932 339.715 196.377C341.291 199.135 343.983 201.368 347.792 203.075C351.6 204.651 355.934 205.439 360.794 205.439C366.704 205.439 372.22 204.257 377.342 201.893C380.756 200.448 383.252 199.069 384.828 197.756C386.404 196.311 387.192 194.735 387.192 193.028C387.192 191.452 386.469 189.548 385.025 187.315C384.631 186.264 384.04 185.345 383.252 184.557C382.595 183.638 381.61 182.587 380.297 181.405C379.509 180.748 377.998 179.304 375.766 177.071C373.664 176.283 371.497 175.232 369.265 173.919L365.128 171.949C361.582 170.373 357.445 167.681 352.717 163.872C348.12 159.932 345.034 156.517 343.458 153.628C341.619 151.921 340.174 149.557 339.124 146.536C338.073 143.515 337.548 140.232 337.548 136.686C337.548 131.958 338.533 127.624 340.503 123.684C342.079 120.138 345.559 115.213 350.944 108.909C356.328 102.605 360.465 98.468 363.355 96.498L368.477 91.573C368.608 91.0477 368.805 90.785 369.068 90.785C369.33 90.6537 369.527 90.588 369.659 90.588C370.053 90.3253 371.432 89.7343 373.796 88.815C376.16 87.7643 378.655 85.9913 381.282 83.496C390.212 79.162 397.37 76.0757 402.755 74.237C408.271 72.267 412.802 71.282 416.348 71.282C421.338 71.5447 425.541 73.1207 428.956 76.01C432.502 78.768 434.603 82.4453 435.26 87.042C435.522 87.83 435.654 89.012 435.654 90.588C435.654 95.316 433.946 100.438 430.532 105.954C427.117 111.339 423.243 115.279 418.909 117.774C415.625 119.219 413.327 119.941 412.014 119.941C411.094 119.941 410.438 119.613 410.044 118.956C409.781 118.299 409.715 117.249 409.847 115.804C409.847 114.622 410.241 113.309 411.029 111.864C411.948 110.288 413.918 107.793 416.939 104.378C422.323 96.6293 425.016 90.8507 425.016 87.042C425.016 84.8093 424.031 83.6273 422.061 83.496C420.616 83.102 416.939 83.4303 411.029 84.481C405.25 85.5317 402.361 86.3853 402.361 87.042C402.361 87.1733 402.295 87.436 402.164 87.83C402.164 88.0927 401.967 88.1583 401.573 88.027C401.047 87.8957 396.188 90.6537 386.995 96.301C377.801 101.817 373.073 104.903 372.811 105.56C372.679 106.217 372.154 106.939 371.235 107.727C370.447 108.384 369.462 108.975 368.28 109.5C365.784 110.945 363.486 113.046 361.385 115.804C359.283 118.562 356.788 122.502 353.899 127.624C352.323 129.857 351.009 132.286 349.959 134.913C349.039 137.54 348.58 139.904 348.58 142.005C348.58 143.45 348.777 144.697 349.171 145.748C349.827 147.981 351.863 150.739 355.278 154.022C358.692 157.174 362.961 160.26 368.083 163.281C374.781 167.09 380.362 170.833 384.828 174.51C389.424 178.056 392.314 181.077 393.496 183.572C396.516 187.775 398.027 192.437 398.027 197.559C398.027 199.398 397.83 201.105 397.436 202.681C396.385 204.914 394.743 207.081 392.511 209.182C390.278 211.415 388.374 212.465 386.798 212.334C385.484 212.728 384.368 213.188 383.449 213.713C382.529 214.37 381.741 214.829 381.085 215.092C379.64 216.011 376.16 216.734 370.644 217.259C365.259 217.916 360.268 218.113 355.672 217.85L347.792 215.486ZM495.015 223.563C493.965 223.563 492.717 222.709 491.272 221.002C489.696 219.426 488.908 217.062 488.908 213.91C488.908 207.869 488.777 203.732 488.514 201.499L488.317 188.103C488.317 184.557 488.514 182.456 488.908 181.799C488.777 181.142 488.711 180.157 488.711 178.844C488.711 177.662 488.777 176.283 488.908 174.707C489.171 173 489.302 171.686 489.302 170.767L488.514 165.448H477.679C475.578 165.711 473.345 165.842 470.981 165.842C466.385 165.842 459.03 165.514 448.917 164.857L446.356 168.994C443.598 173.197 441.497 177.071 440.052 180.617C437.163 188.103 434.339 193.882 431.581 197.953C427.904 205.045 425.409 208.591 424.095 208.591H422.913C421.994 208.591 421.14 208.46 420.352 208.197C419.696 208.066 418.842 207.606 417.791 206.818C415.427 205.767 414.245 204.191 414.245 202.09C414.245 199.463 415.756 196.049 418.776 191.846L421.337 187.709C421.337 186.921 423.045 183.244 426.459 176.677C429.874 170.11 432.172 166.564 433.354 166.039C434.536 164.857 435.127 163.675 435.127 162.493C435.127 161.18 434.339 159.866 432.763 158.553C431.975 158.159 431.581 157.634 431.581 156.977C431.581 156.189 432.041 155.467 432.96 154.81C433.88 154.153 434.93 153.825 436.112 153.825C436.769 153.431 437.36 153.103 437.885 152.84C438.542 152.577 439.002 152.38 439.264 152.249C439.658 151.986 439.855 151.658 439.855 151.264C439.855 150.607 441.431 147.258 444.583 141.217C447.735 135.044 450.165 130.907 451.872 128.806C453.186 125.26 454.302 122.699 455.221 121.123C456.272 119.547 456.929 118.431 457.191 117.774C457.848 117.117 459.161 114.95 461.131 111.273C461.394 110.879 462.248 109.434 463.692 106.939C465.006 105.626 466.319 104.115 467.632 102.408C469.077 100.569 469.996 99.3873 470.39 98.862C470.916 97.9427 471.704 96.8263 472.754 95.513C473.411 93.937 474.593 92.0327 476.3 89.8C478.008 87.436 479.058 85.9913 479.452 85.466C481.291 83.3647 482.736 81.92 483.786 81.132C484.968 80.2127 486.216 79.753 487.529 79.753C488.711 79.753 490.09 80.147 491.666 80.935C494.687 82.2483 496.92 84.3497 498.364 87.239C499.809 90.1283 500.728 94.331 501.122 99.847C501.254 100.766 501.516 102.802 501.91 105.954C502.436 109.106 502.698 111.864 502.698 114.228C502.698 115.935 502.501 117.314 502.107 118.365V127.033C502.107 131.367 502.239 134.585 502.501 136.686C502.107 138.131 501.91 140.495 501.91 143.778L502.107 151.461C502.107 153.431 502.042 155.073 501.91 156.386L501.713 163.675L501.516 170.964C501.385 174.247 501.319 178.384 501.319 183.375L501.516 195.786V203.469C501.516 210.955 501.057 216.077 500.137 218.835C499.349 221.724 497.642 223.3 495.015 223.563ZM455.024 154.613C455.944 154.482 457.848 154.285 460.737 154.022C463.758 153.759 466.779 153.694 469.799 153.825C473.477 153.562 475.972 153.431 477.285 153.431C478.993 153.431 480.766 153.497 482.604 153.628C484.443 153.628 485.494 153.562 485.756 153.431C488.252 153.562 489.499 151.264 489.499 146.536C488.843 139.707 488.514 129.922 488.514 117.183C488.514 112.324 488.58 109.04 488.711 107.333C488.711 105.232 488.58 103.196 488.317 101.226C488.186 99.256 488.055 98.0083 487.923 97.483C487.398 96.8263 485.034 99.1247 480.831 104.378C476.629 109.5 473.805 113.309 472.36 115.804C471.572 116.855 470.522 118.693 469.208 121.32C468.552 122.371 467.829 123.618 467.041 125.063C466.385 126.508 465.531 128.084 464.48 129.791C457.52 140.56 454.039 148.112 454.039 152.446C454.039 153.628 454.368 154.35 455.024 154.613ZM567.896 211.546C560.673 214.041 554.5 215.289 549.378 215.289C542.812 215.289 535.654 213.319 527.905 209.379C527.643 207.934 527.052 206.621 526.132 205.439C525.213 204.126 524.162 203.403 522.98 203.272C522.586 203.141 521.93 202.484 521.01 201.302C520.091 199.989 519.434 199.069 519.04 198.544C518.515 195.917 518.252 194.341 518.252 193.816C518.252 192.634 518.449 190.795 518.843 188.3C519.237 185.805 519.566 183.966 519.828 182.784L521.798 177.465C524.95 168.272 528.431 159.407 532.239 150.87L536.179 140.823C542.089 126.245 545.964 116.461 547.802 111.47C549.641 106.479 550.56 102.933 550.56 100.832C550.56 99.65 550.232 98.271 549.575 96.695C549.181 95.513 548.984 94.3967 548.984 93.346C548.984 89.6687 550.889 87.1077 554.697 85.663C559.163 83.299 563.759 81.329 568.487 79.753C573.347 78.177 577.418 77.389 580.701 77.389C585.035 77.389 589.566 78.1113 594.294 79.556C599.022 80.8693 601.649 82.3797 602.174 84.087L603.356 84.481C603.488 84.481 603.816 84.6123 604.341 84.875C604.867 85.1377 605.589 85.663 606.508 86.451C607.822 87.3703 608.938 88.815 609.857 90.785C610.777 92.755 611.236 94.6593 611.236 96.498C611.236 97.286 611.171 97.877 611.039 98.271C611.039 98.665 611.171 99.65 611.433 101.226C611.827 102.671 612.156 103.853 612.418 104.772C612.55 105.56 612.615 106.742 612.615 108.318C612.615 115.673 609.201 123.027 602.371 130.382L599.81 133.731C599.548 134.125 598.825 134.979 597.643 136.292C596.593 137.605 595.805 138.196 595.279 138.065C593.047 140.035 591.93 141.677 591.93 142.99C591.93 143.647 592.324 144.106 593.112 144.369C593.375 144.763 593.9 145.551 594.688 146.733C595.608 147.915 596.79 149.36 598.234 151.067C601.649 156.32 603.356 162.493 603.356 169.585C603.356 173.262 602.897 176.546 601.977 179.435C600.533 184.557 596.461 190.336 589.763 196.771C583.065 203.206 575.776 208.131 567.896 211.546ZM549.378 147.915C550.823 147.652 552.662 147.061 554.894 146.142C558.309 144.96 560.542 144.238 561.592 143.975C567.24 143.056 572.559 140.954 577.549 137.671C582.671 134.388 587.071 130.513 590.748 126.048C594.426 121.583 597.052 117.117 598.628 112.652C599.154 111.601 599.613 109.96 600.007 107.727C600.533 105.494 600.795 103.524 600.795 101.817C600.795 100.766 600.73 100.044 600.598 99.65V98.074C599.679 95.9727 597.709 94.3967 594.688 93.346C591.799 92.164 588.319 91.573 584.247 91.573C578.075 91.573 572.296 92.6237 566.911 94.725C565.467 95.3817 564.482 96.3667 563.956 97.68C563.431 98.862 562.971 100.307 562.577 102.014C562.315 103.721 562.118 105.035 561.986 105.954C561.592 108.055 560.345 112.258 558.243 118.562C556.93 122.108 556.208 124.144 556.076 124.669C556.076 124.932 555.748 125.391 555.091 126.048C554.566 126.705 554.303 127.361 554.303 128.018C554.041 128.543 553.515 129.725 552.727 131.564C551.939 133.271 551.283 135.044 550.757 136.883C549.969 138.722 549.313 140.495 548.787 142.202C548.393 143.778 548.131 144.829 547.999 145.354C547.999 145.748 548.131 146.405 548.393 147.324C548.656 148.243 548.984 148.44 549.378 147.915ZM546.226 203.666C547.014 203.797 548.328 203.863 550.166 203.863C556.733 203.863 563.628 201.762 570.851 197.559C578.075 193.356 583.656 188.103 587.596 181.799C591.142 177.334 592.915 173 592.915 168.797C592.915 165.382 591.799 161.968 589.566 158.553C586.808 154.35 583.131 152.249 578.534 152.249C576.433 152.249 574.003 152.643 571.245 153.431C568.619 154.219 566.977 154.679 566.32 154.81C564.219 155.204 559.36 156.517 551.742 158.75C547.277 160.326 544.519 161.114 543.468 161.114C542.943 161.508 542.024 162.427 540.71 163.872C539.397 165.317 538.675 166.302 538.543 166.827C537.755 167.09 536.836 168.6 535.785 171.358C534.866 174.116 534.078 176.94 533.421 179.829C532.765 182.587 532.633 184.032 533.027 184.163C533.553 184.294 533.487 185.411 532.83 187.512C532.174 189.613 531.714 191.189 531.451 192.24C531.189 193.291 531.057 194.013 531.057 194.407C531.057 196.902 532.502 199.004 535.391 200.711C538.412 202.418 542.024 203.403 546.226 203.666Z" fill="black"/>
</svg>
