<svg width="291" height="278" viewBox="0 0 291 278" fill="none" xmlns="http://www.w3.org/2000/svg">
<path d="M130.255 9.88877C136.491 -2.74641 154.509 -2.74641 160.745 9.88876L192.241 73.7078C194.717 78.7252 199.504 82.2029 205.041 83.0075L275.469 93.2413C289.413 95.2675 294.981 112.403 284.891 122.238L233.929 171.914C229.922 175.82 228.094 181.447 229.039 186.962L241.07 257.105C243.452 270.993 228.876 281.583 216.404 275.026L153.411 241.909C148.458 239.305 142.542 239.305 137.589 241.909L74.5961 275.026C62.1244 281.583 47.5481 270.993 49.9299 257.105L61.9605 186.962C62.9064 181.447 61.0781 175.82 57.0714 171.914L6.1089 122.238C-3.98089 112.403 1.58677 95.2675 15.5305 93.2413L85.959 83.0075C91.496 82.2029 96.2827 78.7252 98.7589 73.7078L130.255 9.88877Z" fill="black"/>
</svg>
