<svg width="291" height="278" viewBox="0 0 291 278" fill="none" xmlns="http://www.w3.org/2000/svg">
<path d="M156.261 12.1016L187.757 75.9206C190.962 82.4137 197.156 86.9143 204.322 87.9555L274.75 98.1894C284.593 99.6196 288.523 111.715 281.401 118.658L230.439 168.334C225.253 173.388 222.887 180.67 224.111 187.807L236.142 257.951C237.823 267.753 227.534 275.229 218.731 270.601L155.738 237.483C149.328 234.114 141.672 234.114 135.262 237.483L72.2694 270.601C63.4658 275.229 53.1766 267.753 54.858 257.951L66.8886 187.807C68.1126 180.67 65.7466 173.388 60.5615 168.334L9.59896 118.658C2.47675 111.715 6.40688 99.6196 16.2495 98.1894L86.678 87.9555C93.8436 86.9143 100.038 82.4138 103.243 75.9206L134.739 12.1016C139.141 3.18265 151.859 3.18265 156.261 12.1016Z" stroke="black" stroke-width="10"/>
</svg>
