<svg width="266" height="266" viewBox="0 0 266 266" fill="none" xmlns="http://www.w3.org/2000/svg">
<rect width="266" height="266" rx="29" fill="#F6F6F6"/>
<g clip-path="url(#clip0_10_804)">
<path fill-rule="evenodd" clip-rule="evenodd" d="M155.077 140.075C155.993 161.919 156.421 174.01 156.359 176.347C156.114 184.653 154.465 191.638 151.414 197.297C151.168 197.667 150.985 197.851 150.864 197.851C150.681 197.851 150.59 197.453 150.59 196.651C150.652 196.035 150.744 195.204 150.864 194.159C151.168 191.697 151.385 188.869 151.505 185.668C151.568 182.778 151.11 168.779 150.132 143.675C150.07 142.445 150.04 141.212 150.04 139.983C148.941 107.802 148.421 90.5762 148.483 88.2984C148.546 85.4077 148.179 82.9749 147.385 81.0071C147.447 79.7778 148.363 77.2859 150.132 73.5313C150.315 73.0994 150.498 72.8853 150.681 72.8853C150.927 72.8853 151.139 73.1326 151.322 73.6236C151.751 74.6684 152.758 77.5627 154.344 82.2993C156.542 88.6971 157.641 92.3593 157.641 93.2822C157.579 93.7142 157.429 93.9283 157.183 93.9283C156.634 93.8655 155.505 92.7912 153.795 90.698C153.674 90.5762 153.582 90.5134 153.52 90.5134C153.399 90.5134 153.337 90.7608 153.337 91.2518C153.337 91.5582 153.916 107.835 155.077 140.075Z" fill="#FF6106"/>
<path fill-rule="evenodd" clip-rule="evenodd" d="M41.7986 87.8369C41.7986 87.7741 41.9818 87.5304 42.3481 87.0985C44.1173 85.1308 45.0038 83.8055 45.0038 83.1299C45.0038 82.5133 44.729 82.2069 44.1796 82.2069C43.8756 82.2069 43.6008 82.2845 43.3554 82.4395C43.11 82.5909 42.9598 82.6684 42.8975 82.6684H42.806L42.8975 82.1146C43.2016 80.7598 43.8756 80.0842 44.9122 80.0842C45.8279 80.0842 46.2858 80.6379 46.2858 81.7455C46.2858 82.6056 45.9342 83.5618 45.2345 84.6066C44.5312 85.6513 43.6301 86.5743 42.5312 87.3754C42.1027 87.6818 41.8609 87.8369 41.7986 87.8369Z" fill="#00A2B5"/>
<path fill-rule="evenodd" clip-rule="evenodd" d="M50.3151 192.406C50.3151 192.343 50.4982 192.099 50.8645 191.668C52.6337 189.7 53.5202 188.374 53.5202 187.699C53.5202 187.082 53.2455 186.776 52.696 186.776C52.392 186.776 52.1173 186.853 51.8718 187.009C51.6264 187.16 51.4762 187.237 51.414 187.237H51.3224L51.414 186.684C51.718 185.329 52.392 184.653 53.4286 184.653C54.3444 184.653 54.8022 185.207 54.8022 186.314C54.8022 187.175 54.4506 188.131 53.751 189.176C53.0477 190.22 52.1466 191.143 51.0477 191.944C50.6191 192.251 50.3773 192.406 50.3151 192.406Z" fill="#00A2B5"/>
<path fill-rule="evenodd" clip-rule="evenodd" d="M198.667 141.367C198.667 141.305 198.879 141.028 199.308 140.537C201.385 138.259 202.421 136.753 202.421 136.014C202.421 135.276 202.084 134.907 201.414 134.907C201.048 134.907 200.681 135.029 200.315 135.276L199.949 135.461L199.857 135.368L199.949 134.814C200.253 133.216 201.018 132.415 202.238 132.415C203.275 132.415 203.795 133.061 203.795 134.353C203.795 135.339 203.399 136.446 202.604 137.676C201.81 138.905 200.802 139.953 199.582 140.814C199.033 141.183 198.729 141.367 198.667 141.367Z" fill="#00A2B5"/>
<path fill-rule="evenodd" clip-rule="evenodd" d="M148.85 67.4399C148.85 67.2553 149.154 66.7311 149.766 65.8709C152.696 61.6254 154.161 58.7938 154.161 57.3799V57.103C153.978 55.9955 153.458 55.4417 152.604 55.4417C151.689 55.4417 150.985 55.6891 150.498 56.1801L149.766 56.7338C149.766 56.6711 149.674 56.6415 149.491 56.6415C149.553 56.4569 149.582 56.0878 149.582 55.534C149.828 52.7024 151.018 51.1334 153.154 50.827H153.703C155.168 50.827 156.022 51.8422 156.267 53.8727L156.359 54.7956C156.359 56.2724 155.901 57.9632 154.985 59.8718C153.886 62.2715 152.33 64.4237 150.315 66.3324C149.52 67.0707 149.033 67.4399 148.85 67.4399Z" fill="#00A2B5"/>
<path fill-rule="evenodd" clip-rule="evenodd" d="M64.7837 148.659C64.6006 148.659 64.509 148.411 64.509 147.92C64.509 147.06 64.0218 145.414 63.0438 142.984C62.0658 140.551 61.3955 139.337 61.0292 139.337C60.7251 139.337 60.542 139.429 60.4797 139.614C60.4174 139.798 60.205 139.891 59.8387 139.891C59.3515 139.891 58.7691 139.569 58.0988 138.923C57.4284 138.277 57.0914 137.768 57.0914 137.399C57.0914 137.214 57.3808 136.631 57.9632 135.645C58.542 134.659 58.8936 134.168 59.0145 134.168C60.4174 134.168 61.6848 135.014 62.8167 136.708C63.9449 138.399 64.7544 140.629 65.2416 143.398V143.859H65.3332C65.3955 143.859 65.4248 143.83 65.4248 143.767C65.4248 143.704 65.487 143.582 65.6079 143.398C65.7911 141.737 66.3405 139.307 67.2563 136.107C68.2343 133.77 69.2709 132.599 70.3698 132.599C70.9815 132.599 71.5456 132.969 72.0658 133.707C72.5823 134.445 72.8423 135.029 72.8423 135.461C72.8423 135.767 72.7508 136.247 72.5676 136.893C72.3845 137.539 72.1391 137.86 71.835 137.86C71.7141 137.86 71.4394 137.583 71.0108 137.03C70.5823 136.476 70.1244 136.199 69.6372 136.199C68.6592 136.199 67.7434 138.599 66.89 143.398C66.5237 145.491 66.0951 146.968 65.6079 147.828C65.3039 148.382 65.0292 148.659 64.7837 148.659Z" fill="#00A2B5"/>
<path fill-rule="evenodd" clip-rule="evenodd" d="M56.359 112.387C56.1136 112.387 55.9927 112.11 55.9927 111.556C55.9927 110.696 55.5202 109.05 54.5751 106.62C53.6264 104.188 52.9707 102.973 52.6044 102.973C52.3004 102.973 52.1026 103.065 52.011 103.25C51.9194 103.435 51.6887 103.527 51.3224 103.527C50.8938 103.527 50.3443 103.206 49.674 102.56C49.0037 101.914 48.6667 101.404 48.6667 101.035C48.6667 100.85 48.9561 100.282 49.5385 99.3293C50.1172 98.3731 50.4689 97.8969 50.5898 97.8969C51.9927 97.8969 53.2601 98.7275 54.392 100.389C55.5202 102.05 56.2967 104.265 56.7253 107.034L56.8169 107.219V107.495H56.9084C56.9707 107.495 57.0147 107.451 57.0476 107.359C57.0769 107.267 57.1209 107.156 57.1832 107.034C57.3663 105.373 57.9158 102.944 58.8315 99.7427C59.7473 97.4059 60.7839 96.2356 61.9451 96.2356C62.5568 96.2356 63.1209 96.6048 63.641 97.3431C64.1575 98.0815 64.4176 98.6648 64.4176 99.0967C64.4176 99.4659 64.326 99.8978 64.1429 100.389C63.9597 101.127 63.7143 101.496 63.4103 101.496C63.2894 101.496 63.0147 101.219 62.5861 100.666C62.1575 100.112 61.6997 99.835 61.2125 99.835C60.2345 99.835 59.3187 102.235 58.4652 107.034C57.7326 110.604 57.0293 112.387 56.359 112.387Z" fill="#00A2B5"/>
<path fill-rule="evenodd" clip-rule="evenodd" d="M133.648 124.016C141.645 128.14 149.154 129.583 156.176 128.354C159.41 128.354 162.557 127.154 165.608 124.754C166.461 124.079 166.89 121.432 166.89 116.817C166.89 113.864 166.128 102.512 164.601 82.7607C163.256 62.8252 162.586 51.1335 162.586 47.689C162.586 44.4292 162.066 41.7822 161.029 39.7518C161.029 38.5224 161.974 35.6613 163.868 31.1684C163.989 30.6774 164.143 30.4301 164.326 30.4301C164.509 30.4301 164.784 30.7697 165.15 31.4453C165.637 32.4901 166.828 35.5985 168.722 40.767C168.842 41.0734 168.905 41.3208 168.905 41.5054C170.798 46.4892 171.927 49.5977 172.293 50.827C172.597 51.8718 172.751 52.5511 172.751 52.8575C172.751 54.2124 171.315 53.3485 168.447 50.2733C168.08 49.7823 167.897 49.9669 167.897 50.827C167.897 51.0116 168.601 59.8423 170.004 77.3154C171.165 94.7294 171.743 105.125 171.743 108.511C171.743 118.357 170.033 126.017 166.615 131.492C163.381 135.985 159.901 138.292 156.176 138.414C145.249 139.152 136.029 136.815 128.52 131.4L116.249 122.447C115.762 121.956 115.179 121.432 114.509 120.878C113.776 120.572 113.348 120.417 113.227 120.417C113.044 120.417 113.198 120.849 113.685 121.709C115.579 125.279 116.524 127.863 116.524 129.461C116.524 135.121 114.571 139.4 110.663 142.29C107.549 144.384 100.894 147.211 90.6995 150.781L88.868 151.612C83.7398 153.827 80.3516 155.702 78.7032 157.242C75.1025 159.826 70.0658 164.995 63.5933 172.747C59.6849 177.177 55.7472 179.392 51.7801 179.392C48.5457 179.392 45.7362 177.945 43.3552 175.055C40.608 171.795 39.2343 167.918 39.2343 163.426C39.2343 157.271 41.7984 149.212 46.9267 139.245C47.4761 138.2 47.9047 137.676 48.2087 137.676C48.3919 137.676 48.4834 137.86 48.4834 138.229C48.4834 139.09 47.3845 142.504 45.1867 148.474C42.9267 154.503 41.7984 159.243 41.7984 162.687C41.7984 165.271 42.4102 167.331 43.6299 168.871C44.9743 170.595 46.7728 171.455 49.0329 171.455C53.1245 171.455 57.2746 169.395 61.4871 165.271L65.608 160.38C66.8277 158.84 68.1098 157.305 69.4541 155.765C73.0549 151.767 77.6666 148.227 83.282 145.151C86.5164 143.427 92.227 141.12 100.406 138.229C106.022 136.136 109.93 134.416 112.128 133.061C113.165 132.507 113.531 131.739 113.227 130.754C111.333 125.216 103.824 118.08 90.6995 109.341L57.4578 87.3754C55.9303 86.5152 54.3735 85.5923 52.7875 84.6066C52.4834 84.2374 52.3296 83.1004 52.3296 81.1917C52.3296 78.7921 52.6666 76.2374 53.3369 73.5313C54.0072 70.5779 54.8644 68.7616 55.901 68.086C62.8607 62.9175 77.9413 56.025 101.139 47.4122C124.703 38.6738 140.242 34.3064 147.751 34.3064C149.949 34.3064 151.476 34.6461 152.33 35.3217C153.183 36.1818 153.612 37.474 153.612 39.198C153.612 43.1371 150.711 48.121 144.912 54.1496L141.341 57.2876C140.304 58.1478 139.264 59.0707 138.227 60.0564C134.685 63.5008 132.304 66.2697 131.084 68.3629C130.231 69.7178 129.648 70.3933 129.344 70.3933C129.161 70.3933 129.315 69.4409 129.802 67.5322C129.985 66.5465 130.93 64.7634 132.641 62.1792C134.168 59.7795 135.359 58.2106 136.212 57.4722C142.868 51.5026 146.864 47.5672 148.209 45.6586V44.9202C148.209 43.8755 146.348 43.3512 142.623 43.3512C136.824 43.3512 122.842 47.4749 100.681 55.7186C78.5201 64.1469 63.3479 71.0099 55.1684 76.3002C54.619 76.6693 54.6812 77.009 55.3516 77.3154C62.5567 80.9444 69.7288 84.6694 76.8717 88.483C93.7838 97.7123 108.711 106.82 121.652 115.802C125.56 118.508 129.557 121.247 133.648 124.016Z" fill="#FFB000"/>
<path fill-rule="evenodd" clip-rule="evenodd" d="M108.557 90.5134C108.436 90.207 108.312 89.7455 108.191 89.129L108.099 88.9444C105.839 83.285 104.282 77.7141 103.429 72.2392C103.308 71.1945 103.154 70.5779 102.971 70.3933C102.788 69.5332 102.268 68.6693 101.414 67.8091L104.253 62.3638C104.74 61.5036 105.169 61.0717 105.535 61.0717C105.718 61.0717 106.147 61.5036 106.817 62.3638L113.96 71.6855C114.996 72.9148 115.517 73.7787 115.517 74.2697C115.517 74.7607 115.242 75.008 114.692 75.008C113.839 75.008 112.312 74.4247 110.114 73.2545C110.784 76.8244 112.249 81.284 114.509 86.6371C114.996 87.9919 116.678 89.4354 119.546 90.9749C122.476 92.6989 126.077 94.0833 130.352 95.1281C132.062 95.6819 132.824 96.6344 132.641 97.9892L131.084 104.634C130.901 105.373 129.956 105.373 128.246 104.634C123.85 102.604 118.418 101.589 111.945 101.589C103.033 101.589 92.3775 105.528 79.9855 113.402C77.2383 115.126 74.5826 116.847 72.0185 118.571L60.7547 126.323C55.9928 129.092 51.6595 130.477 47.7511 130.477C43.6595 130.477 40.0588 129 36.9452 126.047C33.7108 122.971 32.0917 119.187 32.0917 114.694C32.0917 108.356 35.2676 100.204 41.6155 90.2365C42.2859 89.3764 42.7767 88.9444 43.0807 88.9444C43.2639 88.9444 43.3555 89.0367 43.3555 89.2213C43.3555 90.2661 41.9818 93.7732 39.2346 99.7428C36.5496 105.587 35.2053 110.327 35.2053 113.956C35.2053 116.54 36.0588 118.6 37.7694 120.14C39.2969 121.864 41.4947 122.724 44.3628 122.724C49.0038 122.724 53.3665 121.524 57.458 119.125C62.7071 115.496 67.806 111.896 72.7511 108.326C81.1137 102.789 88.9599 98.4802 96.2859 95.405C101.901 93.1899 106.084 92.0824 108.832 92.0824C108.649 91.7132 108.557 91.189 108.557 90.5134Z" fill="#FFB000"/>
<path fill-rule="evenodd" clip-rule="evenodd" d="M133.923 118.755C133.923 118.634 134.227 118.231 134.839 117.556C137.952 114.17 139.509 111.896 139.509 110.726C139.509 109.681 139.022 109.157 138.044 109.157C137.495 109.157 137.022 109.279 136.626 109.526C136.227 109.773 136 109.925 135.938 109.987L135.663 109.803C135.725 109.74 135.784 109.463 135.846 108.972C136.333 106.635 137.495 105.465 139.326 105.465C140.853 105.465 141.615 106.418 141.615 108.326C141.615 109.74 141.037 111.372 139.875 113.218C138.714 115.064 137.19 116.662 135.297 118.017C134.564 118.508 134.106 118.755 133.923 118.755Z" fill="#00A2B5"/>
<path fill-rule="evenodd" clip-rule="evenodd" d="M32 148.013C32 147.891 32.337 147.459 33.0074 146.72C36.3041 143.029 37.9524 140.566 37.9524 139.337C37.9524 138.167 37.4323 137.583 36.3956 137.583C35.7839 137.583 35.2674 137.738 34.8389 138.045C34.4103 138.351 34.1685 138.506 34.1063 138.506C34.044 138.444 33.9524 138.414 33.8315 138.414C33.8938 138.292 33.9524 137.953 34.0147 137.399C34.5641 134.877 35.8169 133.615 37.7693 133.615C39.4176 133.615 40.2418 134.659 40.2418 136.753C40.2418 138.292 39.6154 140.061 38.3663 142.061C37.1136 144.059 35.4799 145.768 33.4652 147.182C32.6118 147.736 32.1209 148.013 32 148.013Z" fill="#00A2B5"/>
<path fill-rule="evenodd" clip-rule="evenodd" d="M70.37 50.2732C70.674 48.9184 71.2564 47.4121 72.1099 45.7508C88.7143 39.4121 105.78 32.9847 123.3 26.4614L124.125 26.2768H124.264C124.293 26.2768 124.308 26.3396 124.308 26.4614C124.308 26.5832 124.245 26.801 124.125 27.1075C123.513 28.5842 123.073 29.4443 122.799 29.6917C122.524 29.939 114.297 33.1066 98.1172 39.198C81.5714 45.4739 72.3223 49.1657 70.37 50.2732Z" fill="#00A2B5"/>
<path fill-rule="evenodd" clip-rule="evenodd" d="M133.007 92.5439C132.762 92.5439 132.641 92.2042 132.641 91.5286C132.641 90.4211 132.029 88.3131 130.81 85.2084C129.59 82.0999 128.733 80.5457 128.245 80.5457C127.879 80.5457 127.652 80.6675 127.56 80.9148C127.469 81.1622 127.176 81.284 126.689 81.284C126.139 81.284 125.421 80.8706 124.538 80.0399C123.652 79.2093 123.209 78.5447 123.209 78.0537C123.209 77.8692 123.575 77.1456 124.308 75.8867C125.04 74.6241 125.498 73.9928 125.681 73.9928C127.513 73.9928 129.147 75.0708 130.582 77.2231C132.015 79.3754 133.007 82.207 133.557 85.7141L133.648 85.8987V86.3602H133.74C133.802 86.3602 133.832 86.3307 133.832 86.2679C133.832 86.2051 133.894 86.0205 134.015 85.7141C134.319 83.6209 135.051 80.5161 136.212 76.3924C137.432 73.439 138.747 71.9623 140.15 71.9623C140.945 71.9623 141.678 72.4386 142.348 73.3947C143.018 74.3472 143.355 75.1003 143.355 75.6541C143.355 76.086 143.234 76.6841 142.989 77.4557C142.744 78.2236 142.41 78.6075 141.982 78.6075C141.861 78.6075 141.524 78.2679 140.974 77.5923C140.425 76.9167 139.846 76.577 139.234 76.577C137.952 76.577 136.762 79.6227 135.663 85.7141C135.234 88.4202 134.718 90.2993 134.106 91.3441C133.678 92.1452 133.311 92.5439 133.007 92.5439Z" fill="#00A2B5"/>
<path fill-rule="evenodd" clip-rule="evenodd" d="M91.1575 200.343V200.251C91.1575 200.188 91.403 199.819 91.8901 199.143C94.2088 196.068 95.37 194.038 95.37 193.052C95.37 192.066 94.9414 191.575 94.0879 191.575C93.6008 191.575 93.1429 191.76 92.7143 192.129L92.1649 192.498L91.9817 192.406C92.044 192.284 92.0733 192.037 92.0733 191.668C92.3187 189.452 93.326 188.345 95.0953 188.345C96.2564 188.345 96.8975 189.113 97.0183 190.652V191.114C97.0183 192.221 96.652 193.513 95.9194 194.99C95.0037 196.714 93.7839 198.22 92.2564 199.513C91.707 200.004 91.3407 200.28 91.1575 200.343Z" fill="#00A2B5"/>
<path fill-rule="evenodd" clip-rule="evenodd" d="M120.187 145.151H119.821C118.659 144.904 118.081 144.258 118.081 143.213C118.081 141.489 119.088 139.643 121.103 137.676C122.63 136.136 123.971 135.154 125.132 134.722H125.315C125.436 134.722 125.528 134.752 125.59 134.815C125.59 134.999 125.469 135.184 125.223 135.368C124.308 135.922 123.3 136.767 122.202 137.908C121.103 139.045 120.491 139.92 120.37 140.537C120.674 140.352 120.982 140.26 121.286 140.26L121.835 140.352C122.872 140.537 123.392 141.091 123.392 142.013C123.392 143.121 122.872 143.981 121.835 144.598C121.286 144.967 120.736 145.151 120.187 145.151Z" fill="#00A2B5"/>
<path fill-rule="evenodd" clip-rule="evenodd" d="M121.56 64.7635C120.095 64.7635 119.363 63.9624 119.363 62.3638C119.363 60.8871 120.004 59.1963 121.286 57.2877C122.568 55.379 123.729 54.1201 124.765 53.5036L125.04 53.4113C125.102 53.4113 125.146 53.4409 125.179 53.5036C125.209 53.5664 125.223 53.6255 125.223 53.6882C125.223 53.81 125.132 53.9651 124.949 54.1497C124.154 54.888 123.33 55.918 122.476 57.2434C121.623 58.565 121.194 59.5655 121.194 60.2411C121.56 59.8719 122.018 59.6873 122.568 59.6873C123.85 59.6873 124.491 60.2411 124.491 61.3486C124.491 62.3934 124.172 63.224 123.531 63.8405C122.89 64.4571 122.231 64.7635 121.56 64.7635Z" fill="#00A2B5"/>
<path fill-rule="evenodd" clip-rule="evenodd" d="M52.7387 146.963L52.778 147.047C52.8299 147.156 52.7261 147.652 52.4602 148.527C51.0535 153.154 50.596 155.993 51.0942 157.048C51.5656 158.047 52.272 158.32 53.2099 157.869C53.707 157.63 54.0827 157.314 54.3353 156.919C54.5912 156.522 54.7621 156.272 54.8448 156.163L55.0497 156.167L55.2026 156.706C55.9138 159.358 55.3836 161.112 53.6172 161.962C52.1822 162.652 51.0434 162.11 50.2058 160.335C49.5505 158.947 49.3716 157.129 49.6627 154.877C49.9538 152.625 50.685 150.435 51.8495 148.31C52.333 147.465 52.6294 147.016 52.7387 146.963Z" fill="#00A2B5"/>
<path fill-rule="evenodd" clip-rule="evenodd" d="M133.465 34.5833V34.491C133.465 34.4282 133.648 34.1846 134.015 33.7527C136.029 31.6004 137.037 30.1532 137.037 29.4148C137.037 28.7393 136.733 28.3996 136.121 28.3996C135.755 28.3996 135.388 28.5214 135.022 28.7688L134.564 28.8611L134.656 28.215C135.022 26.7383 135.784 26 136.945 26C137.923 26 138.41 26.6165 138.41 27.8458C138.41 28.7688 138.029 29.8136 137.267 30.9838C136.502 32.1541 135.509 33.1694 134.289 34.0295C133.802 34.3987 133.527 34.5833 133.465 34.5833Z" fill="#00A2B5"/>
<path fill-rule="evenodd" clip-rule="evenodd" d="M144.363 172.009C143.447 172.009 142.776 171.426 142.348 170.255C142.102 169.639 141.982 168.901 141.982 168.04C141.982 167.055 142.135 165.947 142.439 164.718C142.927 162.625 143.568 161.089 144.363 160.103L144.546 159.918C144.729 159.918 144.82 160.011 144.82 160.195L144.729 160.565C144.242 161.55 143.842 162.809 143.538 164.349C143.293 165.334 143.172 166.102 143.172 166.656C143.172 167.088 143.234 167.424 143.355 167.671C143.784 166.87 144.454 166.471 145.37 166.471C146.102 166.471 146.59 166.841 146.835 167.579C147.018 168.011 147.11 168.439 147.11 168.871C147.11 169.362 146.989 169.857 146.744 170.348C146.377 171.086 145.89 171.577 145.278 171.824L144.363 172.009Z" fill="#00A2B5"/>
<path fill-rule="evenodd" clip-rule="evenodd" d="M140.242 156.042H140.15C140.15 155.92 140.304 155.488 140.608 154.75C141.769 151.734 142.348 149.644 142.348 148.474C142.348 148.168 142.319 147.92 142.256 147.736C142.011 147.119 141.645 146.813 141.158 146.813C140.487 146.813 139.938 147.119 139.509 147.736C139.264 148.042 139.114 148.197 139.051 148.197H138.868L138.685 146.444C138.685 144.904 139.297 143.922 140.516 143.49L141.249 143.306C142.103 143.306 142.777 143.922 143.264 145.151C143.509 145.768 143.63 146.473 143.63 147.274C143.63 149.796 142.777 152.35 141.066 154.935C140.637 155.61 140.363 155.979 140.242 156.042Z" fill="#00A2B5"/>
<path fill-rule="evenodd" clip-rule="evenodd" d="M93.2638 224.616C92.4103 224.554 91.9818 224.063 91.9818 223.14C91.9818 222.339 92.3481 221.386 93.0807 220.279C93.8133 219.171 94.4836 218.433 95.0953 218.064H95.1869L95.37 218.156L95.2785 218.433C94.7913 218.865 94.3004 219.463 93.8133 220.234C93.3261 221.002 93.0807 221.571 93.0807 221.94C93.2638 221.755 93.5385 221.663 93.9048 221.663C94.5752 221.663 94.9122 221.969 94.9122 222.586C94.9122 223.203 94.729 223.694 94.3627 224.063C93.9964 224.432 93.6301 224.616 93.2638 224.616Z" fill="#00A2B5"/>
<path fill-rule="evenodd" clip-rule="evenodd" d="M124.674 216.495C124.674 216.373 124.949 216.004 125.498 215.387C128.183 212.434 129.527 210.466 129.527 209.48C129.527 208.557 129.099 208.096 128.245 208.096C127.758 208.096 127.344 208.203 127.011 208.421C126.674 208.635 126.476 208.771 126.414 208.834L126.231 208.742L126.322 208.28C126.689 206.003 127.696 204.866 129.344 204.866C130.689 204.866 131.359 205.696 131.359 207.357C131.359 208.587 130.857 210.019 129.85 211.651C128.842 213.279 127.513 214.649 125.864 215.756C125.194 216.247 124.795 216.495 124.674 216.495Z" fill="#00A2B5"/>
<path fill-rule="evenodd" clip-rule="evenodd" d="M76.0476 171.547C76.4139 170.133 76.9926 168.624 77.7875 167.025C84.4432 164.504 91.2783 161.949 98.3003 159.365C111.183 154.503 117.744 152.073 117.989 152.073C118.11 152.073 118.172 152.166 118.172 152.35L117.989 152.996C117.377 154.473 116.89 155.366 116.524 155.673C105.048 159.918 91.5531 165.209 76.0476 171.547Z" fill="#00A2B5"/>
<path fill-rule="evenodd" clip-rule="evenodd" d="M89.8754 85.2527H89.6923C83.8315 83.8387 79.6813 82.4211 77.2381 81.0072C75.2857 79.8369 74.3077 78.1756 74.3077 76.0233L74.3993 74.9158C75.011 75.9605 76.3846 77.1308 78.5201 78.4229C79.3736 78.9139 81.663 79.8073 85.3883 81.0994C88.685 82.2697 90.6996 82.9453 91.4322 83.1299L91.5238 82.7607C91.5238 81.716 90.4872 80.6084 88.4102 79.4382C86.7619 78.8216 84.5348 77.8692 81.7253 76.577C79.8938 75.4695 78.978 74.4838 78.978 73.6236C78.978 73.0071 79.5897 72.2688 80.8095 71.4086C83.7399 69.5627 86.7912 68.6398 89.967 68.6398C91.3113 68.6398 92.3187 68.8244 92.989 69.1935C93.6593 69.5627 93.9963 69.9946 93.9963 70.4856C93.9963 70.8548 93.8425 71.1945 93.5384 71.5009C92.685 72.3611 92.1355 72.793 91.8901 72.793H91.7985C91.7985 72.4238 91.4615 71.8996 90.7912 71.224C90.4872 70.9767 89.7839 70.8548 88.685 70.8548C86.0586 70.8548 83.8938 71.1945 82.1831 71.8701C81.7546 72.0546 81.5421 72.2392 81.5421 72.4238C81.5421 72.793 82.2454 73.3763 83.6483 74.1774C84.685 74.7939 86.0293 75.4068 87.6776 76.0233C89.326 76.6398 90.3333 77.0385 90.6996 77.2231C92.5934 78.2679 93.5384 79.5305 93.5384 81.0072C93.5384 82.0519 92.9597 83.1004 91.7985 84.1451C90.945 84.8835 90.304 85.2527 89.8754 85.2527Z" fill="#00A2B5"/>
<path fill-rule="evenodd" clip-rule="evenodd" d="M41.7985 117.832H41.707C41.707 117.711 41.9524 117.371 42.4396 116.817C44.8828 114.17 46.1026 112.387 46.1026 111.464C46.1026 110.663 45.707 110.264 44.9121 110.264C44.4835 110.264 44.1172 110.357 43.8132 110.541C43.5092 110.726 43.326 110.818 43.2637 110.818H43.0806L43.1722 110.357C43.5385 108.326 44.4835 107.311 46.011 107.311C47.1722 107.311 47.7509 108.079 47.7509 109.618C47.7509 110.726 47.2931 112.003 46.3773 113.45C45.4615 114.894 44.2711 116.142 42.8059 117.186C42.1941 117.618 41.8608 117.832 41.7985 117.832Z" fill="#00A2B5"/>
<path fill-rule="evenodd" clip-rule="evenodd" d="M79.9854 195.729C79.7399 195.666 79.6191 195.33 79.6191 194.713C79.6191 193.728 79.0403 191.775 77.8791 188.854C76.718 185.931 75.9267 184.469 75.4982 184.469C75.1319 184.469 74.9048 184.576 74.8132 184.794C74.7216 185.008 74.4615 185.115 74.033 185.115C73.4835 185.115 72.7985 184.731 71.9744 183.963C71.1502 183.191 70.7363 182.593 70.7363 182.161C70.7363 181.914 71.0879 181.209 71.7912 180.039C72.4908 178.868 72.9341 178.285 73.1172 178.285C74.8278 178.285 76.3517 179.3 77.696 181.331C79.0403 183.361 79.956 186.008 80.4432 189.268C80.5055 189.637 80.5495 189.836 80.5824 189.87C80.6117 189.899 80.6557 189.914 80.718 189.914L80.9927 189.268C81.2381 187.3 81.8791 184.376 82.9158 180.5C84.0769 177.731 85.326 176.347 86.6703 176.347C87.4029 176.347 88.0916 176.793 88.7326 177.687C89.3736 178.577 89.6923 179.271 89.6923 179.762C89.6923 180.194 89.6007 180.714 89.4176 181.331C89.1136 182.191 88.7766 182.623 88.4103 182.623C88.2894 182.623 87.967 182.302 87.4506 181.656C86.9304 181.009 86.3956 180.685 85.8462 180.685C84.6264 180.685 83.4945 183.575 82.4579 189.36C82.0293 191.823 81.5421 193.576 80.9927 194.621C80.6264 195.359 80.2894 195.729 79.9854 195.729Z" fill="#00A2B5"/>
<path fill-rule="evenodd" clip-rule="evenodd" d="M118.538 182.254C116.403 182.254 115.333 180.47 115.333 176.901C115.333 172.533 116.586 167.948 119.088 163.149C119.758 161.978 120.157 161.395 120.278 161.395C120.278 161.642 120.095 162.318 119.729 163.426C118.143 168.409 117.348 171.917 117.348 173.947C117.348 176.653 118.051 178.008 119.454 178.008C120.308 178.008 121.286 176.963 122.385 174.87L122.751 174.409C122.813 174.409 122.842 174.593 122.842 174.962C121.989 179.824 120.553 182.254 118.538 182.254Z" fill="#00A2B5"/>
<path fill-rule="evenodd" clip-rule="evenodd" d="M100.773 227.662L100.681 227.57C100.681 227.507 100.956 227.171 101.506 226.555C104.19 223.601 105.535 221.634 105.535 220.648C105.535 219.725 105.106 219.263 104.253 219.263C103.766 219.263 103.352 219.37 103.018 219.588C102.681 219.802 102.484 219.909 102.421 219.909L102.238 219.817L102.33 219.356C102.696 217.141 103.733 216.033 105.443 216.033C106.725 216.033 107.366 216.864 107.366 218.525C107.366 219.754 106.864 221.172 105.857 222.771C104.85 224.369 103.52 225.754 101.872 226.924C101.26 227.415 100.894 227.662 100.773 227.662Z" fill="#00A2B5"/>
<path fill-rule="evenodd" clip-rule="evenodd" d="M146.835 231.815L146.744 231.723C146.744 231.601 147.081 231.169 147.751 230.431C151.048 226.861 152.696 224.461 152.696 223.232C152.696 222.125 152.176 221.571 151.139 221.571C150.527 221.571 150.026 221.693 149.63 221.94C149.231 222.187 148.971 222.339 148.85 222.401L148.667 222.309L148.758 221.663C149.245 218.957 150.498 217.602 152.513 217.602C154.099 217.602 154.894 218.617 154.894 220.648C154.894 222.187 154.282 223.926 153.062 225.864C151.842 227.802 150.223 229.478 148.209 230.892C147.414 231.509 146.956 231.815 146.835 231.815Z" fill="#00A2B5"/>
<path fill-rule="evenodd" clip-rule="evenodd" d="M165.7 227.385C163.868 227.385 162.952 225.816 162.952 222.678C162.952 218.924 164.051 214.955 166.249 210.772C166.799 209.728 167.136 209.203 167.256 209.203C167.256 209.451 167.103 210.034 166.799 210.957C165.396 215.324 164.692 218.37 164.692 220.094C164.692 222.494 165.304 223.694 166.524 223.694C167.256 223.694 168.11 222.771 169.088 220.925C169.15 220.74 169.242 220.618 169.363 220.556L169.546 220.74L169.454 221.017C168.722 225.263 167.469 227.385 165.7 227.385Z" fill="#00A2B5"/>
<path fill-rule="evenodd" clip-rule="evenodd" d="M139.488 199.437C138.158 198.91 137.933 197.512 138.814 195.241C139.868 192.524 141.781 189.968 144.552 187.573C145.244 186.975 145.636 186.692 145.724 186.727C145.654 186.906 145.379 187.284 144.899 187.864C142.654 190.622 141.288 192.623 140.804 193.871C140.13 195.608 140.237 196.652 141.123 197.002C141.655 197.213 142.534 196.79 143.763 195.736C143.86 195.62 143.961 195.558 144.066 195.547L144.147 195.734L144.003 195.908C142.279 198.769 140.773 199.945 139.488 199.437Z" fill="#00A2B5"/>
<path fill-rule="evenodd" clip-rule="evenodd" d="M183.557 219.633C183.374 219.633 183.282 219.385 183.282 218.894C183.282 218.093 182.824 216.543 181.908 214.235C180.993 211.928 180.352 210.772 179.985 210.772C179.681 210.772 179.498 210.85 179.436 211.005C179.374 211.156 179.161 211.234 178.795 211.234C178.366 211.234 177.835 210.927 177.194 210.311C176.553 209.694 176.231 209.203 176.231 208.834C176.231 208.712 176.506 208.173 177.055 207.221C177.604 206.265 177.941 205.789 178.062 205.789C179.407 205.789 180.612 206.604 181.681 208.236C182.747 209.864 183.495 211.972 183.923 214.556C183.985 214.804 184.015 214.955 184.015 215.018H184.106C184.169 214.955 184.227 214.804 184.289 214.556C184.535 213.017 185.084 210.71 185.938 207.634C186.791 205.419 187.769 204.312 188.868 204.312C189.418 204.312 189.952 204.666 190.473 205.375C190.989 206.08 191.249 206.619 191.249 206.988C191.249 207.295 191.158 207.756 190.974 208.373C190.791 208.989 190.546 209.296 190.242 209.296C190.121 209.296 189.861 209.034 189.465 208.513C189.066 207.989 188.656 207.727 188.227 207.727C187.249 207.727 186.366 210.005 185.571 214.556C184.96 217.942 184.289 219.633 183.557 219.633Z" fill="#00A2B5"/>
<path fill-rule="evenodd" clip-rule="evenodd" d="M199.399 189.083C199.399 188.961 199.645 188.622 200.132 188.068C202.817 185.115 204.161 183.147 204.161 182.161C204.161 181.176 203.733 180.685 202.879 180.685C202.451 180.685 202.07 180.806 201.736 181.054C201.399 181.301 201.168 181.423 201.048 181.423L200.864 181.331L200.956 180.777C201.385 178.625 202.421 177.547 204.07 177.547C205.414 177.547 206.084 178.377 206.084 180.039C206.084 181.268 205.564 182.685 204.527 184.284C203.491 185.883 202.147 187.267 200.498 188.437C199.886 188.869 199.52 189.083 199.399 189.083Z" fill="#00A2B5"/>
<path fill-rule="evenodd" clip-rule="evenodd" d="M195.278 58.2105C194.059 58.2105 193.447 57.5349 193.447 56.18C193.447 55.0098 194.026 53.5958 195.187 51.9345C196.165 50.4578 197.081 49.4426 197.934 48.8888H198.117C198.238 48.8888 198.3 48.9516 198.3 49.0734C198.3 49.1952 198.238 49.3208 198.117 49.4426C197.447 50.0591 196.758 50.9045 196.059 51.9825C195.355 53.0568 195.004 53.8727 195.004 54.4265C195.308 54.1791 195.707 54.0573 196.194 54.0573C197.231 54.0573 197.751 54.5188 197.751 55.4417C197.751 56.2428 197.476 56.9036 196.927 57.4279C196.377 57.9484 195.828 58.2105 195.278 58.2105Z" fill="#00A2B5"/>
<path fill-rule="evenodd" clip-rule="evenodd" d="M202.147 168.963C200.619 168.963 199.857 167.642 199.857 164.995C199.857 161.794 200.773 158.442 202.604 154.935L203.429 153.55L203.52 153.642C203.52 153.827 203.366 154.318 203.062 155.119C201.901 158.811 201.322 161.395 201.322 162.872C201.322 164.839 201.842 165.825 202.879 165.825C203.491 165.825 204.19 165.057 204.985 163.518L205.352 163.149V163.61C204.681 167.18 203.612 168.963 202.147 168.963Z" fill="#00A2B5"/>
<path fill-rule="evenodd" clip-rule="evenodd" d="M194.454 108.695C192.377 108.695 191.341 106.728 191.341 102.789C191.341 101.681 191.462 100.481 191.707 99.1891C191.89 98.2661 192.685 95.5896 194.088 91.1595C195.004 88.5125 195.462 85.3745 195.462 81.7455L195.37 78.8844C195.187 73.9633 193.018 69.4077 188.868 65.2249C188.685 65.0403 188.593 64.8557 188.593 64.6712C188.593 64.4866 189.143 63.4086 190.242 61.4409C190.363 61.319 190.454 61.2563 190.517 61.2563C190.637 61.2563 190.762 61.319 190.883 61.4409C193.447 63.9623 195.158 66.2697 196.011 68.3629C196.681 70.146 197.139 73.0071 197.385 76.9463C197.506 77.8692 197.568 78.7294 197.568 79.5305C197.568 82.6057 196.835 86.3898 195.37 90.8826C193.905 95.3755 193.172 98.543 193.172 100.389C193.172 103.036 193.934 104.358 195.462 104.358C196.315 104.358 197.293 103.313 198.392 101.22C198.575 100.85 198.729 100.666 198.85 100.666V101.312C197.934 106.233 196.469 108.695 194.454 108.695Z" fill="#00A2B5"/>
<path fill-rule="evenodd" clip-rule="evenodd" d="M162.678 153.273C160.784 153.273 159.839 152.35 159.839 150.504C159.839 149.212 160.601 147.274 162.128 144.69C163.656 142.106 164.938 140.814 165.974 140.814C166.89 140.814 167.7 141.231 168.403 142.061C169.103 142.892 169.454 143.922 169.454 145.151C169.454 146.997 168.799 148.814 167.487 150.597C166.172 152.38 164.572 153.273 162.678 153.273ZM164.051 149.489C166.553 149.489 167.806 148.751 167.806 147.274C167.744 145.491 166.553 144.598 164.235 144.598C163.868 144.598 163.304 145.151 162.542 146.259C161.777 147.366 161.396 148.134 161.396 148.566C161.641 149.183 162.524 149.489 164.051 149.489Z" fill="#00A2B5"/>
<path fill-rule="evenodd" clip-rule="evenodd" d="M157.183 166.01C157.549 164.533 158.128 162.964 158.923 161.303C165.396 159.025 172.447 156.504 180.077 153.735C180.443 153.613 180.718 153.55 180.901 153.55C181.022 153.55 181.084 153.613 181.084 153.735C181.084 153.919 181.022 154.133 180.901 154.381C180.289 155.857 179.802 156.751 179.436 157.057C173.026 159.335 165.608 162.318 157.183 166.01Z" fill="#00A2B5"/>
<path fill-rule="evenodd" clip-rule="evenodd" d="M162.128 186.13C162.066 186.13 162.007 186.038 161.945 185.853C162.066 185.115 162.19 184.424 162.311 183.778C162.432 183.132 163.472 182.069 165.425 180.592C162.982 179.732 161.762 178.625 161.762 177.27C161.762 175.793 162.403 174.287 163.685 172.747C166.128 169.794 168.172 168.317 169.82 168.317C171.286 168.317 172.018 169.148 172.018 170.809C172.018 171.732 171.623 172.84 170.828 174.132C170.766 174.254 170.674 174.316 170.553 174.316C170.491 174.316 170.399 174.224 170.278 174.039C169.791 173.054 169.179 172.563 168.447 172.563C167.835 172.563 167.135 172.84 166.341 173.393C165.546 173.947 165.15 174.471 165.15 174.962C165.15 175.453 165.637 175.963 166.615 176.487C167.593 177.008 168.385 177.27 168.996 177.27C169.546 177.27 170.524 176.871 171.927 176.07C172.597 175.579 173.271 175.147 173.941 174.778L174.857 174.132C175.652 173.763 176.11 173.578 176.231 173.578C176.352 173.641 176.414 173.763 176.414 173.947L176.231 174.685C175.927 176.099 175.527 177.022 175.04 177.454C173.209 178.562 169.209 181.238 163.044 185.484L162.128 186.13Z" fill="#00A2B5"/>
<path fill-rule="evenodd" clip-rule="evenodd" d="M172.659 141.367C172.539 141.367 172.476 141.338 172.476 141.275C172.476 140.969 173.696 140.105 176.139 138.691L185.755 132.969C190.454 130.078 193.967 127.401 196.286 124.939C193.235 123.34 191.707 121.646 191.707 119.863C191.707 117.71 192.685 115.739 194.637 113.956C196.165 112.542 197.476 111.833 198.575 111.833C200.286 111.833 201.139 113.063 201.139 115.525C201.139 117.308 200.773 119.309 200.04 121.524C201.626 122.447 202.605 123.215 202.971 123.831C202.971 124.692 202.268 126.139 200.865 128.169C200.498 127.553 199.553 126.785 198.026 125.862C196.315 128.262 194.117 130.447 191.432 132.415C188.44 134.693 185.663 136.383 183.099 137.491C182.55 137.797 179.619 138.938 174.308 140.906C173.513 141.212 172.963 141.367 172.659 141.367ZM198.209 120.601C198.392 119.985 198.484 119.372 198.484 118.755C198.484 116.972 197.963 116.079 196.927 116.079C196.561 116.079 196.059 116.249 195.418 116.588C194.777 116.924 194.454 117.279 194.454 117.648C194.454 118.386 195.707 119.372 198.209 120.601Z" fill="#00A2B5"/>
<path fill-rule="evenodd" clip-rule="evenodd" d="M84.4725 134.538L84.1978 134.445C81.6959 132.478 79.1318 130.661 76.5055 129L76.4139 128.815L79.619 121.801C79.8644 121.432 80.0769 121.247 80.26 121.247C80.6263 121.247 81.8644 121.971 83.9707 123.418C86.0769 124.861 87.4652 125.891 88.1355 126.508L90.6996 121.247C90.8827 120.878 91.0952 120.694 91.3406 120.694C91.7069 120.694 93.1428 121.554 95.6447 123.278C98.1465 125.002 99.3992 126.017 99.3992 126.323C99.3992 127.494 98.3003 129.893 96.1025 133.522C95.9194 133.77 95.7362 133.892 95.5531 133.892C95.4322 133.892 95.3406 133.862 95.2784 133.799C93.0805 132.201 90.5787 130.477 87.7692 128.631C86.8534 130.783 85.9377 132.599 85.0219 134.076C84.8388 134.383 84.6556 134.538 84.4725 134.538Z" fill="#00A2B5"/>
<path fill-rule="evenodd" clip-rule="evenodd" d="M185.572 154.381L185.297 154.288C182.795 152.38 180.231 150.567 177.604 148.843L177.513 148.659C177.513 148.537 178.612 146.196 180.81 141.644C180.993 141.275 181.205 141.09 181.451 141.09C181.755 141.09 182.978 141.814 185.114 143.261C187.249 144.705 188.623 145.735 189.235 146.351L191.799 141.09C192.044 140.721 192.256 140.537 192.44 140.537C192.806 140.537 194.256 141.397 196.791 143.121C199.322 144.845 200.59 145.86 200.59 146.167C200.59 147.337 199.462 149.737 197.202 153.366C197.018 153.613 196.865 153.735 196.744 153.735L196.377 153.642C194.18 152.044 191.707 150.32 188.96 148.474C187.191 152.413 186.059 154.381 185.572 154.381Z" fill="#00A2B5"/>
<path fill-rule="evenodd" clip-rule="evenodd" d="M103.887 186.222L103.612 186.13C101.11 184.221 98.5459 182.409 95.9195 180.685L95.8279 180.5L99.033 173.486C99.2785 173.116 99.4909 172.932 99.6741 172.932C100.04 172.932 101.491 173.81 104.026 175.564C106.557 177.318 107.824 178.314 107.824 178.562C107.824 179.732 106.696 182.132 104.436 185.761C104.253 186.067 104.07 186.222 103.887 186.222Z" fill="#00A2B5"/>
<path fill-rule="evenodd" clip-rule="evenodd" d="M180.901 134.353C180.718 134.29 180.626 133.829 180.626 132.969C180.626 132.293 180.689 131.37 180.809 130.2C181.176 127.494 181.359 124.356 181.359 120.786C181.359 117.526 180.689 106.417 179.344 87.4677C178 68.5179 177.33 57.6568 177.33 54.8879C177.33 51.6281 176.842 48.9516 175.864 46.8584C175.864 45.6881 176.78 42.9193 178.612 38.5519C178.857 37.9982 179.07 37.7213 179.253 37.7213C179.619 37.7213 181.055 41.1657 183.557 48.0582C186.242 55.0098 187.586 59.0116 187.586 60.0564C187.586 60.5474 187.432 60.7948 187.128 60.7948C186.516 60.7948 185.234 59.6577 183.282 57.3799C183.161 57.2581 183.07 57.1953 183.007 57.1953C182.886 57.1953 182.824 57.4722 182.824 58.0259C182.824 58.3324 183.403 66.4874 184.564 82.4838C185.725 98.4802 186.304 107.772 186.304 110.357C186.304 118.172 185.114 125.061 182.733 131.03C181.817 133.183 181.205 134.29 180.901 134.353Z" fill="#FFB000"/>
<path fill-rule="evenodd" clip-rule="evenodd" d="M86.0293 215.018C73.5128 215.018 64.8754 208.834 60.1135 196.467C59.1978 194.067 58.7399 190.992 58.7399 187.237C58.7399 180.961 59.7765 175.147 61.8535 169.794C62.1575 168.934 62.4945 168.502 62.8608 168.502C63.0439 168.502 63.1355 168.716 63.1355 169.148L63.0439 170.163C61.5787 176.255 60.8461 180.286 60.8461 182.254C60.8461 187.359 62.5238 192.066 65.8828 196.375C70.5238 202.097 77.2088 204.958 85.9377 204.958C93.5677 204.958 101.689 203.142 110.297 199.513C117.194 196.622 123.421 192.989 128.978 188.622C133.923 184.746 136.396 181.947 136.396 180.223C136.396 179.976 135.388 177.794 133.374 173.67C130.872 168.871 129.04 164.194 127.879 159.642C127.392 158.102 126.828 157.057 126.187 156.504C125.546 155.95 125.223 155.367 125.223 154.75C125.223 154.318 125.681 151.859 126.597 147.367C126.78 146.565 126.993 146.167 127.238 146.167C127.542 146.167 127.879 146.351 128.245 146.72C129.527 148.134 132.245 150.936 136.396 155.119C137.066 155.795 137.403 156.319 137.403 156.688C137.403 157.179 137.007 157.427 136.212 157.427C135.359 157.427 134.077 157.15 132.366 156.596C132.487 157.15 133.861 160.103 136.487 165.456C138.623 169.823 139.692 173.578 139.692 176.716C139.692 182.992 138.319 187.728 135.571 190.929C131.114 196.098 124.645 201.111 116.157 205.973C105.352 212.002 95.3077 215.018 86.0293 215.018Z" fill="#FF6106"/>
<path fill-rule="evenodd" clip-rule="evenodd" d="M190.974 189.268C193.659 191.974 196.897 193.329 200.681 193.329C203.916 193.329 207.062 192.129 210.114 189.729C210.967 188.869 211.396 186.13 211.396 181.515C211.396 178.746 210.205 160.963 207.824 128.169C205.443 95.3126 204.253 77.1603 204.253 73.7159C204.253 70.456 203.733 67.8091 202.696 65.7786C202.696 64.5492 203.641 61.7804 205.535 57.4721C205.718 56.9811 205.872 56.7338 205.993 56.7338C206.359 56.7338 206.634 56.9811 206.817 57.4721C207.304 58.7015 208.586 61.8099 210.663 66.7938C212.494 72.2687 213.685 75.6245 214.234 76.8539C214.418 77.8986 214.509 78.5779 214.509 78.8843C214.509 80.4238 213.136 79.5599 210.388 76.3001C210.022 75.8091 209.839 75.9937 209.839 76.8539C209.839 77.0384 210.875 92.3297 212.952 122.724C215.15 153.118 216.249 170.041 216.249 173.486C216.249 183.147 214.538 190.807 211.121 196.467C208.253 201.081 204.773 203.389 200.681 203.389C197.081 203.389 193.326 201.757 189.418 198.497C187.341 196.773 185.725 194.898 184.564 192.867L173.575 197.759C168.447 199.789 164.601 201.421 162.037 202.65C157.092 205.05 153.674 207.018 151.78 208.557C148.363 211.142 143.418 216.218 136.945 223.786C133.037 228.4 129.132 230.708 125.223 230.708C121.806 230.708 118.905 229.168 116.524 226.093C113.96 223.018 112.678 219.234 112.678 214.741C112.678 208.587 115.15 200.528 120.095 190.56C120.582 189.515 121.011 188.991 121.377 188.991C121.56 188.991 121.652 189.083 121.652 189.268C121.652 190.254 120.524 193.761 118.264 199.789C116.066 205.818 114.967 210.558 114.967 214.003C114.967 216.587 115.579 218.647 116.798 220.186C118.143 221.91 120.004 222.771 122.385 222.771C126.476 222.771 130.564 220.711 134.656 216.587C136.183 214.678 137.707 212.866 139.234 211.142L142.897 206.988C146.256 203.049 150.773 199.542 156.451 196.467C159.685 194.558 165.396 191.882 173.575 188.437L181.725 185.115C180.564 181.855 179.985 178.591 179.985 175.331C179.985 170.348 180.747 166.316 182.275 163.241C183.802 160.103 185.755 158.534 188.136 158.534C190.15 158.534 192.194 160.35 194.271 163.979C195.982 167.239 196.835 170.163 196.835 172.747C196.835 179.455 194.883 184.96 190.974 189.268ZM186.029 183.084C187.432 182.468 189.051 181.515 190.883 180.223C193.081 178.746 194.179 177.702 194.179 177.085C194.179 175.978 193.278 174.224 191.48 171.824C189.678 169.425 188.106 168.225 186.762 168.225C185.725 168.225 184.718 168.856 183.74 170.119C182.762 171.378 182.275 172.592 182.275 173.762C182.275 174.748 182.795 176.439 183.831 178.839C184.809 180.991 185.542 182.409 186.029 183.084Z" fill="#FF6106"/>
<path fill-rule="evenodd" clip-rule="evenodd" d="M225.132 175.793C224.887 175.793 224.766 175.394 224.766 174.593C224.766 173.918 224.857 172.932 225.04 171.64C225.344 168.993 225.498 165.855 225.498 162.226C225.498 159.025 224.828 147.95 223.484 129C222.139 110.05 221.469 99.1595 221.469 96.3279C221.469 93.1272 220.982 90.4839 220.004 88.3907C220.004 87.2204 220.919 84.422 222.751 79.9919C222.996 79.5009 223.238 79.2536 223.484 79.2536C223.604 79.2536 223.821 79.5305 224.125 80.0842C224.612 81.2545 225.85 84.47 227.835 89.7308C229.817 94.9915 230.993 98.2366 231.359 99.4659C231.604 100.389 231.725 101.098 231.725 101.589C231.725 102.021 231.604 102.235 231.359 102.235C230.747 102.235 229.465 101.098 227.513 98.8199L227.238 98.6353C227.055 98.6353 226.963 98.9417 226.963 99.5582C226.963 99.8056 227.542 107.942 228.703 123.972C229.865 139.998 230.443 149.275 230.443 151.797C230.443 159.671 229.282 166.564 226.963 172.47C226.11 174.685 225.498 175.793 225.132 175.793Z" fill="#FF6106"/>
</g>
<defs>
<clipPath id="clip0_10_804">
<rect width="200" height="206" fill="white" transform="translate(32 26)"/>
</clipPath>
</defs>
</svg>
