<svg width="100" height="100" viewBox="0 0 100 100" fill="none" xmlns="http://www.w3.org/2000/svg">
<rect width="100" height="100" rx="15" fill="white"/>
<path d="M28.47 26.188C30.7247 26.2473 33.009 26.6923 35.323 27.523C37.6963 28.4723 39.8917 30.0743 41.909 32.329C43.689 30.3117 45.558 28.858 47.516 27.968C49.474 27.078 51.432 26.633 53.39 26.633C57.0687 26.633 60.421 27.7603 63.447 30.015C66.5323 32.2697 68.5793 34.732 69.588 37.402V18H73.415C75.4917 18 77.2717 18.801 78.755 20.403C80.2383 21.9457 81.069 23.874 81.247 26.188H83.205C85.8157 26.188 88.011 27.1077 89.791 28.947C91.6303 30.727 92.55 32.9223 92.55 35.533V36.512H81.247V81.635H77.42C75.284 81.635 73.4447 80.7747 71.902 79.054C70.3593 77.3333 69.588 75.2567 69.588 72.824V48.794C68.52 45.8273 66.5027 43.098 63.536 40.606C60.5693 38.0547 57.6027 36.779 54.636 36.779C53.2713 36.779 51.9957 37.135 50.809 37.847C49.6223 38.4997 48.6137 39.627 47.783 41.229C47.249 42.3563 46.982 43.5133 46.982 44.7V44.967C47.0413 46.4503 47.4863 47.726 48.317 48.794C49.207 49.862 50.364 50.396 51.788 50.396H51.966C53.034 50.3367 53.8943 50.0103 54.547 49.417C55.259 48.7643 55.8227 48.0227 56.238 47.192C56.6533 46.302 56.95 45.4417 57.128 44.611C57.306 43.721 57.4247 42.9793 57.484 42.386C57.484 42.1487 57.5137 41.9707 57.573 41.852V41.496C59.5903 42.208 61.0737 43.454 62.023 45.234C62.9723 47.014 63.447 48.9423 63.447 51.019C63.447 52.6803 63.1503 54.2823 62.557 55.825C61.9043 57.5457 60.5693 59.0883 58.552 60.453C56.594 61.8177 54.28 62.5 51.61 62.5C50.3047 62.5 48.94 62.2923 47.516 61.877C45.6767 61.2837 43.8077 59.9783 41.909 57.961C40.0697 59.9783 38.171 61.2837 36.213 61.877C34.8483 62.2923 33.5133 62.5 32.208 62.5C29.538 62.5 27.1943 61.8177 25.177 60.453C23.219 59.0883 21.884 57.5457 21.172 55.825C20.638 54.3417 20.371 52.7693 20.371 51.108C20.371 49.0313 20.8457 47.103 21.795 45.323C22.7443 43.4837 24.198 42.208 26.156 41.496L26.245 42.386C26.3043 42.9793 26.423 43.721 26.601 44.611C26.779 45.4417 27.0757 46.302 27.491 47.192C27.9063 48.0227 28.4403 48.7643 29.093 49.417C29.805 50.0103 30.695 50.3367 31.763 50.396H31.941C33.365 50.396 34.4923 49.862 35.323 48.794C36.213 47.726 36.6877 46.4503 36.747 44.967V44.255C36.747 43.2463 36.48 42.2377 35.946 41.229C35.056 39.5083 33.9583 38.292 32.653 37.58C31.3477 36.868 29.9533 36.512 28.47 36.512H17.345C14.7937 36.512 12.5983 35.622 10.759 33.842C8.91967 32.0027 8 29.8073 8 27.256V26.188H28.47Z" fill="#F71D1D"/>
</svg>
