<svg width="800" height="800" viewBox="0 0 800 800" fill="none" xmlns="http://www.w3.org/2000/svg">
<path d="M289 466.667H133.333C96.6666 466.667 66.6666 496.667 66.6666 533.333V733.333H289V466.667Z" fill="#5295FF" stroke="#292D32" stroke-width="17" stroke-miterlimit="10" stroke-linecap="round" stroke-linejoin="round"/>
<path d="M444.333 333.333H355.333C318.668 333.333 288.668 363.333 288.668 400V733.333H511V400C511 363.333 481.333 333.333 444.333 333.333Z" fill="#FF3F3F" stroke="#292D32" stroke-width="17" stroke-miterlimit="10" stroke-linecap="round" stroke-linejoin="round"/>
<path d="M666.667 566.667H511V733.333H733.333V633.333C733.333 596.667 703.333 566.667 666.667 566.667Z" fill="#FFC535" stroke="#292D32" stroke-width="17" stroke-miterlimit="10" stroke-linecap="round" stroke-linejoin="round"/>
<path d="M417.333 69.0024L435 104.335C437.333 109.335 443.667 114.002 449 114.669L481 120.002C501.333 123.336 506.333 138.335 491.667 152.668L466.667 177.668C462.333 182.002 460 190.002 461.333 195.669L468.333 226.336C474 250.669 461 260.002 439.667 247.336L409.667 229.669C404.333 226.336 395.333 226.336 390 229.669L360 247.336C338.667 260.002 325.666 250.669 331.333 226.336L338.333 195.669C339.667 190.002 337.333 181.668 333 177.668L308.333 153.002C293.666 138.335 298.333 123.668 319 120.335L351 115.002C356.333 114.002 362.667 109.336 365 104.669L382.667 69.3351C392.333 50.0017 407.667 50.0024 417.333 69.0024Z" fill="#67FF81" stroke="#292D32" stroke-width="17" stroke-linecap="round" stroke-linejoin="round"/>
</svg>
