<svg width="24" height="24" viewBox="0 0 24 24" fill="none" xmlns="http://www.w3.org/2000/svg">
<circle cx="11.85" cy="12.25" r="11.75" fill="white"/>
<path d="M9.101 23.734V15.7247H6.627V12.0442H9.101V10.4583C9.101 6.35831 10.949 4.45835 14.959 4.45835C15.36 4.45835 15.914 4.5005 16.427 4.56173C16.8112 4.60141 17.1924 4.6668 17.568 4.75744V8.09468C17.3509 8.07435 17.133 8.0623 16.915 8.05855C16.6707 8.05218 16.4264 8.04917 16.182 8.04952C15.475 8.04952 14.923 8.14587 14.507 8.35965C14.2273 8.50048 13.9922 8.71664 13.828 8.98394C13.57 9.40549 13.454 9.9826 13.454 10.7424V12.0442H17.373L16.987 14.1549L16.7 15.7247H13.454V24C19.396 23.2794 24 18.2017 24 12.0442C24 5.39277 18.627 0 12 0C5.373 0 0 5.39277 0 12.0442C0 17.6929 3.874 22.4323 9.101 23.734Z" fill="#0866FF"/>
</svg>
