<svg width="24" height="24" viewBox="0 0 24 24" fill="none" xmlns="http://www.w3.org/2000/svg">
<circle cx="12" cy="12" r="12" fill="#181717"/>
<path d="M12 0C5.37 0 0 5.50942 0 12.3047C0 17.7423 3.438 22.3535 8.205 23.9787C8.805 24.0946 9.025 23.7142 9.025 23.3871C9.025 23.0949 9.015 22.3207 9.01 21.2953C5.672 22.0377 4.968 19.6444 4.968 19.6444C4.422 18.2243 3.633 17.8449 3.633 17.8449C2.546 17.082 3.717 17.0973 3.717 17.0973C4.922 17.1835 5.555 18.3647 5.555 18.3647C6.625 20.2463 8.364 19.7029 9.05 19.3881C9.158 18.5924 9.467 18.0499 9.81 17.7423C7.145 17.4347 4.344 16.3765 4.344 11.6618C4.344 10.3185 4.809 9.22133 5.579 8.36C5.444 8.04931 5.039 6.79833 5.684 5.10337C5.684 5.10337 6.689 4.77319 8.984 6.36459C9.944 6.09082 10.964 5.95546 11.984 5.94931C13.004 5.95546 14.024 6.09082 14.984 6.36459C17.264 4.77319 18.269 5.10337 18.269 5.10337C18.914 6.79833 18.509 8.04931 18.389 8.36C19.154 9.22133 19.619 10.3185 19.619 11.6618C19.619 16.3888 16.814 17.4296 14.144 17.7321C14.564 18.1012 14.954 18.8559 14.954 20.0084C14.954 21.6552 14.939 22.978 14.939 23.3779C14.939 23.7009 15.149 24.0854 15.764 23.9623C20.565 22.3484 24 17.7341 24 12.3047C24 5.50942 18.627 0 12 0Z" fill="#F0F6FC"/>
</svg>
