<svg width="24" height="28" viewBox="0 0 24 28" fill="none" xmlns="http://www.w3.org/2000/svg">
<circle cx="12" cy="14" r="12" fill="white"/>
<path d="M6.162 21.667C6.162 21.851 6.07767 21.8203 5.909 21.575C5.75567 21.345 5.60233 20.908 5.449 20.264C5.41833 20.126 5.39533 19.9803 5.38 19.827C5.36467 19.6583 5.357 19.4897 5.357 19.321C5.357 18.6463 5.44133 17.872 5.61 16.998C5.77867 16.1087 5.98567 15.1887 6.231 14.238C6.49167 13.272 6.74467 12.3367 6.99 11.432C7.23533 10.5273 7.44233 9.72233 7.611 9.017C7.77967 8.29633 7.864 7.752 7.864 7.384C7.864 7.2 7.84867 7.07733 7.818 7.016C7.78733 6.95467 7.772 6.901 7.772 6.855C7.772 6.70167 7.89467 6.625 8.14 6.625C8.40067 6.625 8.72267 6.72467 9.106 6.924C9.48933 7.108 9.819 7.384 10.095 7.752C10.371 8.12 10.4783 8.557 10.417 9.063C10.417 9.109 10.4093 9.155 10.394 9.201C10.394 9.247 10.3863 9.30067 10.371 9.362C10.8463 9.868 11.2757 10.466 11.659 11.156C12.0423 11.846 12.441 12.5743 12.855 13.341C13.2843 14.0923 13.775 14.8437 14.327 15.595C14.327 15.6257 14.4113 15.7637 14.58 16.009C14.764 16.239 14.994 16.5303 15.27 16.883C15.546 17.2203 15.8373 17.573 16.144 17.941C16.466 18.309 16.7497 18.6463 16.995 18.953V18.723C17.0257 18.4777 17.087 18.033 17.179 17.389C17.2863 16.745 17.409 15.9937 17.547 15.135C17.7003 14.261 17.8613 13.364 18.03 12.444C18.1987 11.524 18.3673 10.6577 18.536 9.845C18.7047 9.017 18.8657 8.33467 19.019 7.798C19.019 7.798 19.0957 7.78267 19.249 7.752C19.4023 7.72133 19.5557 7.706 19.709 7.706C19.8777 7.706 20.0157 7.729 20.123 7.775C20.2457 7.821 20.307 7.92067 20.307 8.074C20.307 8.15067 20.2993 8.212 20.284 8.258C20.2073 8.51867 20.0923 8.96333 19.939 9.592C19.7857 10.2207 19.6093 10.9643 19.41 11.823C19.2107 12.6817 18.996 13.5787 18.766 14.514C18.5513 15.4493 18.3367 16.3617 18.122 17.251C17.9073 18.1403 17.708 18.93 17.524 19.62L17.662 19.735C17.9227 19.9497 18.099 20.1413 18.191 20.31C18.283 20.4633 18.329 20.5783 18.329 20.655C18.329 20.7623 18.2523 20.816 18.099 20.816C17.8997 20.816 17.6237 20.7393 17.271 20.586C17.179 20.908 17.0947 21.161 17.018 21.345C16.9413 21.529 16.9107 21.621 16.926 21.621C16.9107 21.6363 16.88 21.644 16.834 21.644C16.7267 21.644 16.673 21.5213 16.673 21.276C16.673 21.1533 16.6883 21.0077 16.719 20.839C16.7497 20.6703 16.7727 20.4863 16.788 20.287C15.96 19.7503 15.1857 19.1217 14.465 18.401C13.7597 17.665 13.0697 16.8677 12.395 16.009C11.9197 15.3957 11.5133 14.8897 11.176 14.491C10.854 14.077 10.5473 13.709 10.256 13.387C9.98 13.0497 9.681 12.6893 9.359 12.306C9.037 13.0573 8.68433 13.847 8.301 14.675C7.933 15.503 7.57267 16.3157 7.22 17.113C6.88267 17.895 6.60667 18.6233 6.392 19.298C6.17733 19.9573 6.07 20.5093 6.07 20.954C6.07 21.0307 6.07 21.0997 6.07 21.161C6.08533 21.2377 6.10067 21.3067 6.116 21.368C6.13133 21.4293 6.139 21.483 6.139 21.529C6.15433 21.5903 6.162 21.6363 6.162 21.667Z" fill="black"/>
</svg>
