<svg width="209" height="218" viewBox="0 0 209 218" fill="none" xmlns="http://www.w3.org/2000/svg">
<circle cx="104.5" cy="109.5" r="104.5" fill="white"/>
<path d="M59.826 166.191C59.826 167.623 59.1697 167.384 57.857 165.475C56.6637 163.685 55.4703 160.284 54.277 155.272C54.0383 154.198 53.8593 153.064 53.74 151.871C53.6207 150.558 53.561 149.246 53.561 147.933C53.561 142.682 54.2173 136.656 55.53 129.854C56.8427 122.933 58.4537 115.773 60.363 108.374C62.3917 100.856 64.3607 93.5767 66.27 86.536C68.1793 79.4953 69.7903 73.2303 71.103 67.741C72.4157 62.1323 73.072 57.896 73.072 55.032C73.072 53.6 72.9527 52.6453 72.714 52.168C72.4753 51.6907 72.356 51.273 72.356 50.915C72.356 49.7217 73.3107 49.125 75.22 49.125C77.2487 49.125 79.7547 49.9007 82.738 51.452C85.7213 52.884 88.287 55.032 90.435 57.896C92.583 60.76 93.4183 64.161 92.941 68.099C92.941 68.457 92.8813 68.815 92.762 69.173C92.762 69.531 92.7023 69.9487 92.583 70.426C96.2823 74.364 99.6237 79.018 102.607 84.388C105.59 89.758 108.693 95.4263 111.915 101.393C115.256 107.24 119.075 113.088 123.371 118.935C123.371 119.174 124.027 120.248 125.34 122.157C126.772 123.947 128.562 126.214 130.71 128.959C132.858 131.584 135.125 134.329 137.512 137.193C140.018 140.057 142.226 142.682 144.135 145.069V143.279C144.374 141.37 144.851 137.909 145.567 132.897C146.402 127.885 147.357 122.038 148.431 115.355C149.624 108.553 150.877 101.572 152.19 94.412C153.503 87.252 154.815 80.5097 156.128 74.185C157.441 67.741 158.694 62.4307 159.887 58.254C159.887 58.254 160.484 58.1347 161.677 57.896C162.87 57.6573 164.064 57.538 165.257 57.538C166.57 57.538 167.644 57.717 168.479 58.075C169.434 58.433 169.911 59.2087 169.911 60.402C169.911 60.9987 169.851 61.476 169.732 61.834C169.135 63.8627 168.24 67.3233 167.047 72.216C165.854 77.1087 164.481 82.8963 162.93 89.579C161.379 96.2617 159.708 103.243 157.918 110.522C156.247 117.801 154.577 124.902 152.906 131.823C151.235 138.744 149.684 144.89 148.252 150.26L149.326 151.155C151.355 152.826 152.727 154.317 153.443 155.63C154.159 156.823 154.517 157.718 154.517 158.315C154.517 159.15 153.92 159.568 152.727 159.568C151.176 159.568 149.028 158.971 146.283 157.778C145.567 160.284 144.911 162.253 144.314 163.685C143.717 165.117 143.479 165.833 143.598 165.833C143.479 165.952 143.24 166.012 142.882 166.012C142.047 166.012 141.629 165.057 141.629 163.148C141.629 162.193 141.748 161.06 141.987 159.747C142.226 158.434 142.405 157.002 142.524 155.451C136.08 151.274 130.054 146.382 124.445 140.773C118.956 135.045 113.586 128.84 108.335 122.157C104.636 117.384 101.473 113.446 98.848 110.343C96.342 107.121 93.9553 104.257 91.688 101.751C89.54 99.1257 87.213 96.3213 84.707 93.338C82.201 99.1853 79.4563 105.331 76.473 111.775C73.609 118.219 70.8047 124.544 68.06 130.749C65.4347 136.835 63.2867 142.503 61.616 147.754C59.9453 152.885 59.11 157.181 59.11 160.642C59.11 161.239 59.11 161.776 59.11 162.253C59.2293 162.85 59.3487 163.387 59.468 163.864C59.5873 164.341 59.647 164.759 59.647 165.117C59.7663 165.594 59.826 165.952 59.826 166.191Z" fill="black"/>
</svg>
