<svg xmlns="http://www.w3.org/2000/svg"  viewBox="0 0 48 48" width="48px" height="48px"><path fill="currentColor" d="M40.6,10.57c-0.02-0.02-0.05-0.04-0.08-0.07c-2.39-1.92-5.59-2.9-7.85-3.37c-2.23-0.47-4.46,0.8-5.18,2.95 c-0.01,0.04-0.03,0.07-0.04,0.11c3.75,0.38,7.1,1.41,9.82,3.02c0.71,0.42,0.94,1.34,0.52,2.06C37.51,15.74,37.01,16,36.5,16 c-0.26,0-0.53-0.07-0.77-0.21c-3.06-1.82-7.12-2.78-11.73-2.78s-8.67,0.96-11.73,2.78c-0.72,0.42-1.64,0.19-2.06-0.52 c-0.42-0.72-0.19-1.64,0.52-2.06c2.72-1.61,6.07-2.64,9.82-3.02c-0.01-0.04-0.03-0.07-0.04-0.11c-0.72-2.15-2.95-3.42-5.18-2.95 C13.07,7.6,9.87,8.58,7.48,10.5c-0.03,0.03-0.06,0.05-0.08,0.07c-2.22,2.06-6.32,12.54-6.32,22.06c0,0.26,0.06,0.51,0.19,0.74 c2.44,4.29,8.19,5.86,10.56,6.33c0.29,0.06,0.58,0.09,0.87,0.09c1.42,0,2.79-0.68,3.64-1.86l0.52-0.71 C11.71,36,9.07,33.8,8.92,33.67c-0.63-0.54-0.71-1.48-0.17-2.11s1.48-0.71,2.11-0.18c0.08,0.07,4.49,3.64,13.14,3.64 c8.69,0,13.1-3.6,13.14-3.64c0.63-0.53,1.58-0.45,2.11,0.19c0.53,0.63,0.46,1.57-0.17,2.1c-0.15,0.13-2.79,2.33-7.94,3.55 l0.52,0.71c0.85,1.18,2.22,1.86,3.64,1.86c0.29,0,0.58-0.03,0.87-0.09c2.37-0.47,8.12-2.04,10.56-6.33 c0.13-0.23,0.19-0.48,0.19-0.74C46.92,23.11,42.82,12.63,40.6,10.57z M17.53,29.92c-1.91,0-3.46-1.77-3.46-3.96S15.62,22,17.53,22 c1.92,0,3.47,1.77,3.47,3.96S19.45,29.92,17.53,29.92z M30.44,30c-1.93,0-3.5-1.79-3.5-4c0-2.21,1.57-4,3.5-4 c1.94,0,3.5,1.79,3.5,4C33.94,28.21,32.38,30,30.44,30z"/></svg>