<svg xmlns="http://www.w3.org/2000/svg"  viewBox="0 0 50 50" width="50px" height="50px"><path fill="currentColor" d="M 5.5 7 C 3.03125 7 1.011719 9.015625 1 11.484375 C 1 11.484375 1 11.488281 1 11.492188 C 1 11.496094 1 11.496094 1 11.5 L 1 38.5 C 1 40.972656 3.027344 43 5.5 43 L 44.5 43 C 46.972656 43 49 40.972656 49 38.5 L 49 11.5 C 49 11.496094 49 11.496094 49 11.492188 C 49 11.488281 49 11.484375 49 11.484375 C 48.988281 9.015625 46.96875 7 44.5 7 Z M 8.101563 9 L 41.902344 9 L 25 20.78125 Z M 4.773438 9.117188 L 25 23.21875 L 45.230469 9.117188 C 46.253906 9.425781 46.992188 10.355469 47 11.488281 C 46.996094 11.699219 46.78125 12.121094 46.46875 12.460938 C 46.152344 12.804688 45.84375 13.019531 45.84375 13.019531 L 45.839844 13.027344 L 25 27.777344 L 4.160156 13.027344 L 4.15625 13.019531 C 4.15625 13.019531 3.847656 12.804688 3.53125 12.460938 C 3.21875 12.121094 3.003906 11.699219 3 11.488281 C 3.007813 10.355469 3.746094 9.425781 4.773438 9.117188 Z M 3 14.652344 C 3 14.652344 3.007813 14.660156 3.007813 14.660156 L 3.015625 14.664063 L 3.015625 14.667969 L 6 16.777344 L 6 41 L 5.5 41 C 4.109375 41 3 39.890625 3 38.5 Z M 47 14.652344 L 47 38.5 C 47 39.890625 45.890625 41 44.5 41 L 44 41 L 44 16.777344 L 46.984375 14.667969 L 46.984375 14.664063 C 46.984375 14.664063 47 14.652344 47 14.652344 Z M 8 18.191406 L 25 30.222656 L 42 18.191406 L 42 41 L 8 41 Z"/></svg>